<?xml version="1.0" standalone="no"?>
<!DOCTYPE svg PUBLIC "-//W3C//DTD SVG 20010904//EN"
 "http://www.w3.org/TR/2001/REC-SVG-20010904/DTD/svg10.dtd">
<svg version="1.0" xmlns="http://www.w3.org/2000/svg"
 width="150.000000pt" height="150.000000pt" viewBox="0 0 150.000000 150.000000"
 preserveAspectRatio="xMidYMid meet">

<g transform="translate(0.000000,150.000000) scale(0.100000,-0.100000)"
fill="#000000" stroke="none">
<path d="M0 755 l0 -745 745 0 745 0 0 745 0 745 -745 0 -745 0 0 -745z m1395
-352 c6 -17 7 -17 16 0 18 32 39 20 39 -22 0 -38 -2 -40 -30 -39 -20 1 -30 6
-31 17 -1 13 -2 13 -6 -1 -7 -29 -23 -20 -23 12 0 20 -5 30 -15 30 -10 0 -15
-10 -15 -30 0 -16 -4 -30 -10 -30 -5 0 -10 14 -10 30 0 17 -4 30 -10 30 -5 0
-10 5 -10 10 0 6 22 10 49 10 37 0 50 -4 56 -17z m-1166 -64 c40 -14 61 -54
61 -114 0 -38 -5 -52 -29 -76 -24 -24 -38 -29 -76 -29 -38 0 -52 5 -76 29 -24
25 -29 37 -29 81 0 63 12 88 53 105 39 17 55 18 96 4z m221 -23 c0 -30 -3 -35
-27 -38 -28 -3 -28 -4 -31 -80 l-3 -78 -34 0 -35 0 0 110 0 110 45 -2 c25 0
48 2 52 5 17 18 33 5 33 -27z m149 23 c41 -15 51 -41 51 -138 l0 -78 -81 0
c-66 0 -85 3 -100 18 -44 44 -6 111 69 124 43 7 54 21 27 31 -8 4 -25 0 -38
-8 -16 -11 -28 -12 -45 -5 -29 13 -24 28 19 49 40 21 55 22 98 7z m256 -14
c23 -22 25 -32 25 -115 l0 -90 -35 0 -35 0 0 84 c0 48 -5 88 -10 91 -6 4 -22
-1 -35 -9 -23 -15 -25 -23 -25 -91 l0 -75 -30 0 -30 0 0 111 0 112 39 -6 c21
-2 45 -1 52 4 25 16 59 9 84 -16z m218 14 l37 2 0 -120 c0 -112 -2 -122 -24
-147 -20 -24 -31 -28 -79 -28 -56 -1 -97 20 -97 51 0 16 61 18 77 2 15 -15 50
-2 56 20 4 17 1 18 -23 9 -20 -7 -37 -5 -63 6 -29 12 -38 22 -47 57 -24 88 29
169 100 152 14 -3 42 -5 63 -4z m235 -24 c13 -16 22 -39 22 -61 l0 -34 -65 0
c-66 0 -81 -10 -53 -38 16 -16 38 -15 59 4 14 13 20 13 38 2 27 -17 26 -22 -5
-47 -51 -40 -136 -22 -159 34 -19 44 -19 79 1 120 28 60 118 70 162 20z"/>
<path d="M149 266 c-15 -31 -4 -72 21 -86 30 -16 64 22 56 63 -10 51 -58 65
-77 23z"/>
<path d="M543 218 c-28 -13 -31 -48 -5 -48 23 0 42 19 42 42 0 20 -6 21 -37 6z"/>
<path d="M986 285 c-20 -21 -21 -78 -1 -95 35 -29 76 30 53 78 -16 32 -31 37
-52 17z"/>
<path d="M1210 285 c-11 -13 -7 -15 25 -15 32 0 36 2 25 15 -7 8 -18 15 -25
15 -7 0 -18 -7 -25 -15z"/>
</g>
</svg>
