<?xml version="1.0" standalone="no"?>
<!DOCTYPE svg PUBLIC "-//W3C//DTD SVG 20010904//EN" "http://www.w3.org/TR/2001/REC-SVG-20010904/DTD/svg10.dtd">
<svg version="1.0" xmlns="http://www.w3.org/2000/svg" width="200.000000pt" height="200.000000pt" viewBox="0 0 200.000000 200.000000" preserveAspectRatio="xMidYMid meet">

  <g transform="translate(0.000000,200.000000) scale(0.100000,-0.100000)" fill="#000000" stroke="none">
    <path d="M0 1000 l0 -1000 1000 0 1000 0 0 1000 0 1000 -1000 0 -1000 0 0
-1000z m1089 291 c13 -9 18 -111 6 -131 -4 -6 -112 -10 -271 -10 l-265 0 -24
-25 c-25 -24 -25 -26 -25 -213 0 -133 -4 -192 -12 -200 -18 -18 -142 -16 -158
3 -8 10 -11 72 -8 232 3 235 7 250 62 302 46 43 99 50 401 50 154 0 286 -3
294 -8z m486 -13 c77 -41 94 -90 95 -273 0 -162 -10 -207 -54 -251 -50 -50
-88 -56 -379 -52 -292 3 -301 5 -354 74 -25 34 -28 46 -32 142 -4 124 1 132
87 132 84 0 92 -8 92 -92 0 -110 -5 -108 224 -108 249 0 236 -8 236 149 0 98
-3 121 -16 132 -11 9 -56 16 -133 19 l-116 5 -3 64 c-2 44 1 67 10 73 7 5 81
7 163 6 114 -3 157 -8 180 -20z" />
  </g>
</svg>