<?xml version="1.0" standalone="yes"?>
<svg xmlns="http://www.w3.org/2000/svg" width="284" height="285">
<path style="fill:#282f3a; stroke:none;" d="M0 0L0 285L284 285L284 0L0 0z"/>
<path style="fill:#363d4b; stroke:none;" d="M246 80L247 81L246 80M145 81L146 82L145 81M148 81L149 82L148 81M209 81L210 82L209 81M212 81L213 82L212 81M176 82L177 83L176 82M108 83L109 84L108 83M146.667 83.3333L147.333 83.6667L146.667 83.3333M183 83L184 84L183 83M239 83L241 85L239 83M40 84L41 85L40 84M104 84L105 85L104 84M244 84L245 85L244 84M48 85L48 86L51 86L48 85z"/>
<path style="fill:#95999f; stroke:none;" d="M51 85L51 86L64 86L51 85z"/>
<path style="fill:#363d4b; stroke:none;" d="M64.6667 85.3333L65.3333 85.6667L64.6667 85.3333M145 85L146 86L145 85M148 85L149 86L148 85M151.333 85.6667L151.667 86.3333L151.333 85.6667M181 85L182 86L181 85M214 85L214 87L216 87L214 85M217 85L217 86L220 86L217 85z"/>
<path style="fill:#95999f; stroke:none;" d="M220 85L220 86L232 86L220 85z"/>
<path style="fill:#363d4b; stroke:none;" d="M232.667 85.3333L233.333 85.6667L232.667 85.3333M45 86L46 87L45 86z"/>
<path style="fill:#95999f; stroke:none;" d="M46.6667 86.3333L47.3333 86.6667L46.6667 86.3333z"/>
<path style="fill:#f9fafb; stroke:none;" d="M32 101C44.4205 100.363 68.5272 87.682 71.787 109C72.3342 112.578 72 116.389 72 120C65.5099 118.176 58.7798 116.742 52 117.039C47.9016 117.219 43.7399 118.207 40 119.904C25.4256 126.518 21.8564 147.396 35.0154 157.581C42.0407 163.019 53.2097 162.466 61 159.12C65.7681 157.072 69.6154 153.868 73 150C75.3636 155.473 85.1627 165.364 88.2114 153.907C89.3432 149.654 85.4501 144.351 85.0934 140C83.9462 126.007 89.1205 107.409 80.8665 95.0401C71.4641 80.9503 32.0155 80.944 32 101z"/>
<path style="fill:#95999f; stroke:none;" d="M67.6667 86.3333L68.3333 86.6667L67.6667 86.3333z"/>
<path style="fill:#363d4b; stroke:none;" d="M69 86L70 87L69 86M91 86L92 87L91 86M177 86L177 87L179 88L177 91L178 91L177 86M209 86L210 87L209 86z"/>
<path style="fill:#95999f; stroke:none;" d="M216 86L217 87L216 86z"/>
<path style="fill:#f9fafb; stroke:none;" d="M199 146C196.034 156.061 203.304 159.105 212 160.739C223.776 162.952 239.036 162.46 246.895 151.829C248.8 149.253 250.302 146.183 250.787 143C254.535 118.414 226.979 123.427 215.148 111.775C204.075 100.87 223.792 95.0134 232 96.4637C237.093 97.3637 241.85 99.4868 247 100C246.923 78.0449 206.18 82.8055 199.97 100C190.168 127.138 224.859 122.679 235.427 135.214C246.366 148.188 221.937 151.964 214 150.535C208.83 149.605 204.039 147.375 199 146z"/>
<path style="fill:#95999f; stroke:none;" d="M234.667 86.3333L235.333 86.6667L234.667 86.3333z"/>
<path style="fill:#363d4b; stroke:none;" d="M236.667 86.3333L237.333 86.6667L236.667 86.3333M246.667 86.3333L247.333 86.6667L246.667 86.3333M40.6667 87.3333L41.3333 87.6667L40.6667 87.3333z"/>
<path style="fill:#95999f; stroke:none;" d="M42.6667 87.3333L43.3333 87.6667L42.6667 87.3333M70.6667 87.3333L71.3333 87.6667L70.6667 87.3333z"/>
<path style="fill:#363d4b; stroke:none;" d="M72 87L72 88L75 89L72 87M93 87L94 88L93 87z"/>
<path style="fill:#95999f; stroke:none;" d="M93 88L93 89L105 88L93 88z"/>
<path style="fill:#363d4b; stroke:none;" d="M105.667 87.3333L106.333 87.6667L105.667 87.3333M136 87L137 88L136 87z"/>
<path style="fill:#95999f; stroke:none;" d="M137 87L137 88L148 88L137 87z"/>
<path style="fill:#363d4b; stroke:none;" d="M148 87L149 88L148 87z"/>
<path style="fill:#95999f; stroke:none;" d="M178 90L192 89C187.818 85.8314 181.638 86.2852 178 90z"/>
<path style="fill:#363d4b; stroke:none;" d="M191 87L192 88L191 87M211 87L212 88L211 87z"/>
<path style="fill:#95999f; stroke:none;" d="M212.667 87.3333L213.333 87.6667L212.667 87.3333M238.667 87.3333L239.333 87.6667L238.667 87.3333z"/>
<path style="fill:#363d4b; stroke:none;" d="M240.667 87.3333L241.333 87.6667L240.667 87.3333M27 88L28 89L27 88M35 88L36 89L35 88M38 88L39 89L38 88z"/>
<path style="fill:#95999f; stroke:none;" d="M39 88L40 89L39 88M73 88L74 89L73 88z"/>
<path style="fill:#f9fafb; stroke:none;" d="M93 89C97.566 108.917 104.848 128.429 110.72 148C112.839 155.062 117.313 164.716 126.722 158.821C131.009 156.135 131.283 148.443 132.374 144C135.64 130.7 138.294 117.184 142 104C147.041 115.868 149.291 130.374 152 143C152.896 147.176 153.623 156.146 157.433 158.682C166.764 164.891 171.658 155.028 174 148C180.403 128.786 187.895 108.834 192 89L179.513 89.6034L174.265 105L164 146L163 146C161.35 133.221 157.218 120.58 154.424 108C153.278 102.838 152.902 94.695 149.836 90.3179C147.685 87.2473 140.433 87.1398 137.279 88.6034C132.997 90.5901 132.842 98.9931 131.87 103C128.484 116.96 124.902 130.93 122 145C116.812 132.941 114.698 118.731 111.475 106C110.314 101.416 109.761 93.0293 106.272 89.6034C103.234 86.62 96.5852 87.9403 93 89z"/>
<path style="fill:#95999f; stroke:none;" d="M106 88L107 89L106 88z"/>
<path style="fill:#363d4b; stroke:none;" d="M109 88L110 89L109 88z"/>
<path style="fill:#95999f; stroke:none;" d="M135 88L136 89L135 88M149 88L150 89L149 88z"/>
<path style="fill:#363d4b; stroke:none;" d="M150 88L151 89L150 88M192 88L192 92L193 92L192 88M204 88L205 89L204 88M209 88L210 89L209 88z"/>
<path style="fill:#95999f; stroke:none;" d="M210 88L211 89L210 88M242 88L243 89L242 88z"/>
<path style="fill:#363d4b; stroke:none;" d="M243 88L244 89L243 88M246 88L247 89L246 88z"/>
<path style="fill:#95999f; stroke:none;" d="M36.6667 89.3333L37.3333 89.6667L36.6667 89.3333M75 89L77 91L75 89z"/>
<path style="fill:#363d4b; stroke:none;" d="M76 89L77 90L76 89M107.667 89.3333L108.333 89.6667L107.667 89.3333M134 89L135 90L134 89M206 91L209 90L206 91z"/>
<path style="fill:#95999f; stroke:none;" d="M244 89L247 92L244 89z"/>
<path style="fill:#363d4b; stroke:none;" d="M245 89L246 90L245 89M33 90L34 91L33 90z"/>
<path style="fill:#95999f; stroke:none;" d="M34 90L35 91L34 90z"/>
<path style="fill:#363d4b; stroke:none;" d="M77 90L78 91L77 90M92 90L93 91L92 90z"/>
<path style="fill:#95999f; stroke:none;" d="M107 90L108 91L107 90M134.333 90.6667L134.667 91.3333L134.333 90.6667M150 90L151 91L150 90M207 90L208 91L207 90z"/>
<path style="fill:#363d4b; stroke:none;" d="M246 90L247 91L246 90z"/>
<path style="fill:#95999f; stroke:none;" d="M32.6667 91.3333L33.3333 91.6667L32.6667 91.3333z"/>
<path style="fill:#363d4b; stroke:none;" d="M78 91L79 92L78 91M82.3333 91.6667L82.6667 92.3333L82.3333 91.6667z"/>
<path style="fill:#95999f; stroke:none;" d="M93 91L94 92L93 91z"/>
<path style="fill:#363d4b; stroke:none;" d="M108.667 91.3333L109.333 91.6667L108.667 91.3333M129.333 91.6667L129.667 92.3333L129.333 91.6667M133 91L132 96L133 96L133 91z"/>
<path style="fill:#95999f; stroke:none;" d="M177.333 91.6667L177.667 92.3333L177.333 91.6667M191.333 91.6667L191.667 92.3333L191.333 91.6667z"/>
<path style="fill:#363d4b; stroke:none;" d="M205 91L206 92L205 91M31 92L32 93L31 92M79 92L80 93L79 92M93.3333 92.6667L93.6667 93.3333L93.3333 92.6667z"/>
<path style="fill:#95999f; stroke:none;" d="M108 92L108 95L109 95L108 92z"/>
<path style="fill:#363d4b; stroke:none;" d="M151.333 92.6667L151.667 93.3333L151.333 92.6667M202 95L205 92L202 95M247 92L247 96L248 96L247 92z"/>
<path style="fill:#95999f; stroke:none;" d="M31 93C31.0147 97.1504 30.6134 100.544 35 102L35 101L32 101L31 93z"/>
<path style="fill:#363d4b; stroke:none;" d="M80 93L82 95L80 93M84 93L85 94L84 93M110 93L111 94L110 93M176.333 93.6667L176.667 94.3333L176.333 93.6667M191.333 93.6667L191.667 94.3333L191.333 93.6667z"/>
<path style="fill:#95999f; stroke:none;" d="M80 94L81 95L80 94M94.3333 94.6667L94.6667 95.3333L94.3333 94.6667z"/>
<path style="fill:#363d4b; stroke:none;" d="M109.333 94.6667L109.667 95.3333L109.333 94.6667z"/>
<path style="fill:#95999f; stroke:none;" d="M151.333 94.6667L151.667 95.3333L151.333 94.6667M81 95L82 96L81 95z"/>
<path style="fill:#363d4b; stroke:none;" d="M85 95L86 96L85 95M89.3333 95.6667L89.6667 96.3333L89.3333 95.6667M130 95L131 96L130 95z"/>
<path style="fill:#95999f; stroke:none;" d="M133 95L134 96L133 95M176.333 95.6667L176.667 96.3333L176.333 95.6667M190 95L191 96L190 95z"/>
<path style="fill:#363d4b; stroke:none;" d="M201 95L202 96L201 95M29 96L30 97L29 96z"/>
<path style="fill:#95999f; stroke:none;" d="M51 96L51 97L59 97L51 96z"/>
<path style="fill:#363d4b; stroke:none;" d="M82 96L83 97L82 96M94.3333 96.6667L94.6667 97.3333L94.3333 96.6667z"/>
<path style="fill:#95999f; stroke:none;" d="M109 96L109 99L110 99L109 96z"/>
<path style="fill:#363d4b; stroke:none;" d="M152 96L154 99L152 96M172 96L173 97L172 96M190.333 96.6667L190.667 97.3333L190.333 96.6667z"/>
<path style="fill:#95999f; stroke:none;" d="M201 96L202 97L201 96M221 96L221 97L233 97L221 96M247.333 96.6667L247.667 97.3333L247.333 96.6667M46.6667 97.3333L47.3333 97.6667L46.6667 97.3333z"/>
<path style="fill:#363d4b; stroke:none;" d="M48 97L48 98L53 98L48 97M57 97L57 98L62 98L57 97z"/>
<path style="fill:#95999f; stroke:none;" d="M62 97L63 98L62 97M82 97L83 98L82 97z"/>
<path style="fill:#363d4b; stroke:none;" d="M132 97L133 98L132 97M200 97L201 98L200 97z"/>
<path style="fill:#95999f; stroke:none;" d="M218 97L219 98L218 97z"/>
<path style="fill:#363d4b; stroke:none;" d="M219.667 97.3333L220.333 97.6667L219.667 97.3333M231 97L231 98L236 98L231 97z"/>
<path style="fill:#95999f; stroke:none;" d="M236 97L237 98L236 97M42.6667 98.3333L43.3333 98.6667L42.6667 98.3333z"/>
<path style="fill:#363d4b; stroke:none;" d="M44 98L45 99L44 98M47 98L48 99L47 98M64 98L64 99L69 102L64 98z"/>
<path style="fill:#95999f; stroke:none;" d="M65 98L66 99L65 98z"/>
<path style="fill:#363d4b; stroke:none;" d="M83 98L84 99L83 98z"/>
<path style="fill:#95999f; stroke:none;" d="M95 98L96 99L95 98M132 98L132 101L133 101L132 98z"/>
<path style="fill:#363d4b; stroke:none;" d="M175 98L176 99L175 98z"/>
<path style="fill:#95999f; stroke:none;" d="M189.333 98.6667L189.667 99.3333L189.333 98.6667M200 98L201 99L200 98M216 98L217 99L216 98z"/>
<path style="fill:#363d4b; stroke:none;" d="M217 98L218 99L217 98M238 98L239 99L238 98z"/>
<path style="fill:#95999f; stroke:none;" d="M239 98L239 99L243 100L243 99L239 98z"/>
<path style="fill:#363d4b; stroke:none;" d="M247.333 98.6667L247.667 99.3333L247.333 98.6667M24.3333 99.6667L24.6667 100.333L24.3333 99.6667z"/>
<path style="fill:#95999f; stroke:none;" d="M39.6667 99.3333L40.3333 99.6667L39.6667 99.3333z"/>
<path style="fill:#363d4b; stroke:none;" d="M41 99L42 100L41 99z"/>
<path style="fill:#95999f; stroke:none;" d="M67 99L68 100L67 99M83.3333 99.6667L83.6667 100.333L83.3333 99.6667z"/>
<path style="fill:#363d4b; stroke:none;" d="M95 99L96 100L95 99M110.333 99.6667L110.667 100.333L110.333 99.6667z"/>
<path style="fill:#95999f; stroke:none;" d="M152 99L153 100L152 99M175 99L176 100L175 99z"/>
<path style="fill:#363d4b; stroke:none;" d="M199 99L200 100L199 99z"/>
<path style="fill:#95999f; stroke:none;" d="M214 99L213 101L214 99z"/>
<path style="fill:#363d4b; stroke:none;" d="M215 99L216 100L215 99M240 99L241 100L240 99z"/>
<path style="fill:#95999f; stroke:none;" d="M37 100L38 101L37 100z"/>
<path style="fill:#363d4b; stroke:none;" d="M38.3333 100.667L38.6667 101.333L38.3333 100.667z"/>
<path style="fill:#95999f; stroke:none;" d="M68 100L69 101L68 100z"/>
<path style="fill:#363d4b; stroke:none;" d="M189 100L190 101L189 100M194.333 100.667L194.667 101.333L194.333 100.667z"/>
<path style="fill:#95999f; stroke:none;" d="M199 100L200 101L199 100z"/>
<path style="fill:#363d4b; stroke:none;" d="M214 100L215 101L214 100M243 100L244 101L243 100z"/>
<path style="fill:#95999f; stroke:none;" d="M244.667 100.333L245.333 100.667L244.667 100.333z"/>
<path style="fill:#363d4b; stroke:none;" d="M246 100L247 101L246 100M31 101L32 102L31 101M35.3333 101.667L35.6667 102.333L35.3333 101.667M84 101L85 102L84 101z"/>
<path style="fill:#95999f; stroke:none;" d="M96 101L97 102L96 101M110 101L111 102L110 101z"/>
<path style="fill:#363d4b; stroke:none;" d="M131.333 101.667L131.667 102.333L131.333 101.667M153 101L154 102L153 101M170 101L171 102L170 101M174 101L175 102L174 101z"/>
<path style="fill:#95999f; stroke:none;" d="M188.333 101.667L188.667 102.333L188.333 101.667z"/>
<path style="fill:#363d4b; stroke:none;" d="M213 101L214 102L213 101M245 101L246 102L245 101M32 102L33 103L32 102z"/>
<path style="fill:#95999f; stroke:none;" d="M69 102L70 103L69 102M84.3333 102.667L84.6667 103.333L84.3333 102.667z"/>
<path style="fill:#363d4b; stroke:none;" d="M96.3333 102.667L96.6667 103.333L96.3333 102.667M111.333 102.667L111.667 103.333L111.333 102.667z"/>
<path style="fill:#95999f; stroke:none;" d="M153.333 102.667L153.667 103.333L153.333 102.667M174 102L174 105L175 105L174 102z"/>
<path style="fill:#363d4b; stroke:none;" d="M198.333 102.667L198.667 103.333L198.333 102.667z"/>
<path style="fill:#95999f; stroke:none;" d="M212 102L213 103L212 102z"/>
<path style="fill:#363d4b; stroke:none;" d="M215 102L216 103L215 102M234 102L235 103L234 102M242 102L243 103L242 102M30 103L31 104L30 103M37 103L38 104L37 103M66 103L65 105L66 103M85 103L86 104L85 103z"/>
<path style="fill:#95999f; stroke:none;" d="M131.333 103.667L131.667 104.333L131.333 103.667z"/>
<path style="fill:#363d4b; stroke:none;" d="M158 103L159 104L158 103M188 103L189 104L188 103M193 103L194 104L193 103M212 103L212 109L213 109L214 103L212 103M240 103L241 104L240 103M245 103L246 104L245 103z"/>
<path style="fill:#95999f; stroke:none;" d="M70 104L71 105L70 104M97.3333 104.667L97.6667 105.333L97.3333 104.667M111 104L111 107L112 107L111 104z"/>
<path style="fill:#363d4b; stroke:none;" d="M130 104L131 105L130 104z"/>
<path style="fill:#95999f; stroke:none;" d="M142 104L141 107L142 107L142 104M198 104L198 110L199 110L198 104z"/>
<path style="fill:#363d4b; stroke:none;" d="M70 105L71 106L70 105M85 105L85 108L86 108L85 105M112 105L112 109L113 109L112 105M142 105L141 109L142 109L142 105M154 105L155 106L154 105M173.333 105.667L173.667 106.333L173.333 105.667z"/>
<path style="fill:#95999f; stroke:none;" d="M187 105L188 106L187 105z"/>
<path style="fill:#363d4b; stroke:none;" d="M66 106L67 107L66 106z"/>
<path style="fill:#95999f; stroke:none;" d="M71 106L71 110L72 110L71 106z"/>
<path style="fill:#363d4b; stroke:none;" d="M97 106L98 107L97 106M130 106L131 107L130 106z"/>
<path style="fill:#95999f; stroke:none;" d="M154 106L154 109L155 109L154 106z"/>
<path style="fill:#363d4b; stroke:none;" d="M187 106L188 107L187 106z"/>
<path style="fill:#95999f; stroke:none;" d="M130.333 107.667L130.667 108.333L130.333 107.667M143 107L143 110L144 110L143 107M173 107L174 108L173 107M186.333 107.667L186.667 108.333L186.333 107.667M85 108L85 144L86 144C86 133.613 89.0114 117.56 85 108M98 108L99 109L98 108z"/>
<path style="fill:#363d4b; stroke:none;" d="M98 109L99 110L98 109z"/>
<path style="fill:#95999f; stroke:none;" d="M112 109L113 110L112 109M140 109L140 112L141 112L140 109z"/>
<path style="fill:#363d4b; stroke:none;" d="M155 109L155 112L156 112L155 109M172 109L173 110L172 109M186.333 109.667L186.667 110.333L186.333 109.667M189 109L190 110L189 109z"/>
<path style="fill:#95999f; stroke:none;" d="M212 109L213 110L212 109z"/>
<path style="fill:#363d4b; stroke:none;" d="M71 110L69 118L69 119C73.0173 118.139 72.7601 113.055 71 110z"/>
<path style="fill:#95999f; stroke:none;" d="M99.3333 110.667L99.6667 111.333L99.3333 110.667z"/>
<path style="fill:#363d4b; stroke:none;" d="M129 110L130 111L129 110M143 110L144 111L143 110z"/>
<path style="fill:#95999f; stroke:none;" d="M172.333 110.667L172.667 111.333L172.333 110.667z"/>
<path style="fill:#363d4b; stroke:none;" d="M198.333 110.667L198.667 111.333L198.333 110.667z"/>
<path style="fill:#95999f; stroke:none;" d="M213 110L214 111L213 110z"/>
<path style="fill:#363d4b; stroke:none;" d="M66 111L67 112L66 111M97 111L98 112L97 111M113 111L114 112L113 111z"/>
<path style="fill:#95999f; stroke:none;" d="M129 111L129 114L130 114L129 111M185 111L186 112L185 111z"/>
<path style="fill:#363d4b; stroke:none;" d="M190 111L191 112L190 111z"/>
<path style="fill:#95999f; stroke:none;" d="M214 111L215 112L214 111z"/>
<path style="fill:#363d4b; stroke:none;" d="M99.3333 112.667L99.6667 113.333L99.3333 112.667z"/>
<path style="fill:#95999f; stroke:none;" d="M113.333 112.667L113.667 113.333L113.333 112.667z"/>
<path style="fill:#363d4b; stroke:none;" d="M140.333 112.667L140.667 113.333L140.333 112.667z"/>
<path style="fill:#95999f; stroke:none;" d="M144 112L145 113L144 112M155 112L156 113L155 112z"/>
<path style="fill:#363d4b; stroke:none;" d="M185.333 112.667L185.667 113.333L185.333 112.667z"/>
<path style="fill:#95999f; stroke:none;" d="M199.333 112.667L199.667 113.333L199.333 112.667M215 112L218 114L218 113L215 112z"/>
<path style="fill:#363d4b; stroke:none;" d="M216 112L217 113L216 112M128.333 113.667L128.667 114.333L128.333 113.667M144 113L145 114L144 113M171 113L172 114L171 113M187.333 113.667L187.667 114.333L187.333 113.667z"/>
<path style="fill:#95999f; stroke:none;" d="M100.333 114.667L100.667 115.333L100.333 114.667z"/>
<path style="fill:#363d4b; stroke:none;" d="M114.333 114.667L114.667 115.333L114.333 114.667z"/>
<path style="fill:#95999f; stroke:none;" d="M139.333 114.667L139.667 115.333L139.333 114.667z"/>
<path style="fill:#363d4b; stroke:none;" d="M156 114L157 115L156 114z"/>
<path style="fill:#95999f; stroke:none;" d="M171 114L171 117L172 117L171 114M184 114L185 115L184 114z"/>
<path style="fill:#363d4b; stroke:none;" d="M198.667 114.333L199.333 114.667L198.667 114.333z"/>
<path style="fill:#95999f; stroke:none;" d="M218.667 114.333L219.333 114.667L218.667 114.333z"/>
<path style="fill:#363d4b; stroke:none;" d="M64 115L65 116L64 115z"/>
<path style="fill:#95999f; stroke:none;" d="M128 115L128 118L129 118L128 115M156.333 115.667L156.667 116.333L156.333 115.667z"/>
<path style="fill:#363d4b; stroke:none;" d="M170 115L171 116L170 115M184.667 115.333L185.333 115.667L184.667 115.333z"/>
<path style="fill:#95999f; stroke:none;" d="M200 115L201 116L200 115M221 115L222 116L221 115z"/>
<path style="fill:#363d4b; stroke:none;" d="M222.667 115.333L223.333 115.667L222.667 115.333M232 115L233 116L232 115M39 116L40 117L39 116M47 116L48 117L47 116M50 116L50 117L58 117L50 116M68 116L69 117L68 116M100 116L101 117L100 116z"/>
<path style="fill:#95999f; stroke:none;" d="M114.333 116.667L114.667 117.333L114.333 116.667z"/>
<path style="fill:#363d4b; stroke:none;" d="M139 116L140 117L139 116z"/>
<path style="fill:#95999f; stroke:none;" d="M145 116L146 117L145 116z"/>
<path style="fill:#363d4b; stroke:none;" d="M200 116L201 117L200 116z"/>
<path style="fill:#95999f; stroke:none;" d="M223 116L223 117L226 117L223 116z"/>
<path style="fill:#363d4b; stroke:none;" d="M226 116L227 117L226 116M32 117L33 118L32 117M40 117L41 118L40 117M45 117L46 118L45 117z"/>
<path style="fill:#95999f; stroke:none;" d="M46.6667 117.333L47.3333 117.667L46.6667 117.333M60 117L60 118L63 118L60 117z"/>
<path style="fill:#363d4b; stroke:none;" d="M63.6667 117.333L64.3333 117.667L63.6667 117.333M116 117L117 118L116 117M119 117L120 118L119 117M145 117L145 120L146 120L145 117M157 117L159 120L157 117z"/>
<path style="fill:#95999f; stroke:none;" d="M183.333 117.667L183.667 118.333L183.333 117.667z"/>
<path style="fill:#363d4b; stroke:none;" d="M201 117L204 121L201 117z"/>
<path style="fill:#95999f; stroke:none;" d="M227 117L228 118L227 117z"/>
<path style="fill:#363d4b; stroke:none;" d="M228.667 117.333L229.333 117.667L228.667 117.333M231 117L231 119L233 119L231 117M41.6667 118.333L42.3333 118.667L41.6667 118.333z"/>
<path style="fill:#95999f; stroke:none;" d="M43 118L44 119L43 118M66 118L66 119L69 119L66 118M101 118L102 119L101 118z"/>
<path style="fill:#363d4b; stroke:none;" d="M127.333 118.667L127.667 119.333L127.333 118.667z"/>
<path style="fill:#95999f; stroke:none;" d="M138.333 118.667L138.667 119.333L138.333 118.667z"/>
<path style="fill:#363d4b; stroke:none;" d="M140.333 118.667L140.667 119.333L140.333 118.667M170 118L171 119L170 118z"/>
<path style="fill:#95999f; stroke:none;" d="M202 118L203 119L202 118M230 118L231 119L230 118z"/>
<path style="fill:#363d4b; stroke:none;" d="M37 121L40 120L37 121z"/>
<path style="fill:#95999f; stroke:none;" d="M40 119L41 120L40 119M70.6667 119.333L71.3333 119.667L70.6667 119.333z"/>
<path style="fill:#363d4b; stroke:none;" d="M100 119L102 121L102 119L100 119M115 119L116 120L115 119z"/>
<path style="fill:#95999f; stroke:none;" d="M157 119L157 122L158 122L157 119M170 119L171 120L170 119z"/>
<path style="fill:#363d4b; stroke:none;" d="M183.333 119.667L183.667 120.333L183.333 119.667M185 119L186 120L185 119z"/>
<path style="fill:#95999f; stroke:none;" d="M203 119L204 120L203 119M232 119L232 120L235 120L232 119z"/>
<path style="fill:#363d4b; stroke:none;" d="M235 119L236 120L235 119M29 120L28 122L29 120z"/>
<path style="fill:#95999f; stroke:none;" d="M38 120L39 121L38 120M102.333 120.667L102.667 121.333L102.333 120.667M115.333 120.667L115.667 121.333L115.333 120.667M127.333 120.667L127.667 121.333L127.333 120.667z"/>
<path style="fill:#363d4b; stroke:none;" d="M138 120L139 121L138 120M142 120L143 121L142 120z"/>
<path style="fill:#95999f; stroke:none;" d="M146.333 120.667L146.667 121.333L146.333 120.667M182.333 120.667L182.667 121.333L182.333 120.667M236 120L237 121L236 120z"/>
<path style="fill:#363d4b; stroke:none;" d="M237 120L238 121L237 120M35 121L34 123L35 121z"/>
<path style="fill:#95999f; stroke:none;" d="M36 121L37 122L36 121z"/>
<path style="fill:#363d4b; stroke:none;" d="M169 121L170 122L169 121M204 121L206 123L204 121z"/>
<path style="fill:#95999f; stroke:none;" d="M205 121L206 122L205 121M238.667 121.333L239.333 121.667L238.667 121.333z"/>
<path style="fill:#363d4b; stroke:none;" d="M241 121L244 124L241 121z"/>
<path style="fill:#95999f; stroke:none;" d="M35 122L36 123L35 122z"/>
<path style="fill:#363d4b; stroke:none;" d="M102.333 122.667L102.667 123.333L102.333 122.667M126.333 122.667L126.667 123.333L126.333 122.667z"/>
<path style="fill:#95999f; stroke:none;" d="M137.333 122.667L137.667 123.333L137.333 122.667z"/>
<path style="fill:#363d4b; stroke:none;" d="M140 122L141 123L140 122M146 122L147 123L146 122M158.333 122.667L158.667 123.333L158.333 122.667z"/>
<path style="fill:#95999f; stroke:none;" d="M169.333 122.667L169.667 123.333L169.333 122.667z"/>
<path style="fill:#363d4b; stroke:none;" d="M182 122L183 123L182 122M203 122L204 123L203 122z"/>
<path style="fill:#95999f; stroke:none;" d="M206 122L207 123L206 122M241 122L242 123L241 122z"/>
<path style="fill:#363d4b; stroke:none;" d="M27 123L29 125L27 123M33 123L34 124L33 123M116 123L117 124L116 123M201 123L202 124L201 123M207 123L208 124L207 123z"/>
<path style="fill:#95999f; stroke:none;" d="M242 123L243 124L242 123z"/>
<path style="fill:#363d4b; stroke:none;" d="M245 123L246 124L245 123M30 124L31 125L30 124M32 124L33 125L32 124z"/>
<path style="fill:#95999f; stroke:none;" d="M103.333 124.667L103.667 125.333L103.333 124.667M116.333 124.667L116.667 125.333L116.333 124.667M126.333 124.667L126.667 125.333L126.333 124.667z"/>
<path style="fill:#363d4b; stroke:none;" d="M137 124L137 127L138 127L137 124z"/>
<path style="fill:#95999f; stroke:none;" d="M147 124L148 125L147 124M158.333 124.667L158.667 125.333L158.333 124.667z"/>
<path style="fill:#363d4b; stroke:none;" d="M168.333 124.667L168.667 125.333L168.333 124.667z"/>
<path style="fill:#95999f; stroke:none;" d="M181 124L182 125L181 124z"/>
<path style="fill:#363d4b; stroke:none;" d="M203 124L204 125L203 124M206 124L207 125L206 124M208 124L209 125L208 124z"/>
<path style="fill:#95999f; stroke:none;" d="M209 124L210 125L209 124M244 124L245 125L244 124z"/>
<path style="fill:#363d4b; stroke:none;" d="M26 125L27 126L26 125z"/>
<path style="fill:#95999f; stroke:none;" d="M31 125L32 126L31 125z"/>
<path style="fill:#363d4b; stroke:none;" d="M121 125L122 126L121 125M140 125L141 126L140 125M145.333 125.667L145.667 126.333L145.333 125.667M147 125L148 126L147 125M181 125L182 126L181 125M210 125L211 126L210 125z"/>
<path style="fill:#95999f; stroke:none;" d="M211.667 125.333L212.333 125.667L211.667 125.333M245 125L248 128L245 125z"/>
<path style="fill:#363d4b; stroke:none;" d="M246 125L247 126L246 125M30 126L29 128L30 126M103 126L104 127L103 126M117.333 126.667L117.667 127.333L117.333 126.667M125.333 126.667L125.667 127.333L125.333 126.667z"/>
<path style="fill:#95999f; stroke:none;" d="M136.333 126.667L136.667 127.333L136.333 126.667z"/>
<path style="fill:#363d4b; stroke:none;" d="M159.333 126.667L159.667 127.333L159.333 126.667z"/>
<path style="fill:#95999f; stroke:none;" d="M168.333 126.667L168.667 127.333L168.333 126.667z"/>
<path style="fill:#363d4b; stroke:none;" d="M204 126L205 127L204 126M213 126L214 127L213 126z"/>
<path style="fill:#95999f; stroke:none;" d="M214 126L215 127L214 126z"/>
<path style="fill:#363d4b; stroke:none;" d="M247 126L248 127L247 126M25 127L26 128L25 127z"/>
<path style="fill:#95999f; stroke:none;" d="M30 127L31 128L30 127M49 127L49 128L52 128L49 127z"/>
<path style="fill:#363d4b; stroke:none;" d="M52 127L52 128L55 128L52 127z"/>
<path style="fill:#282f3a; stroke:none;" d="M43 137L41 136C42.1409 150.457 57.6097 155.414 67.7608 143.906C71.4324 139.743 70.9891 134.201 71 129C62.9958 127.513 42.5221 123.958 43 137z"/>
<path style="fill:#363d4b; stroke:none;" d="M60 127L60 128L64 128L60 127z"/>
<path style="fill:#95999f; stroke:none;" d="M64 127L64 128L68 128L64 127M104 127L105 128L104 127M180 127L181 128L180 127z"/>
<path style="fill:#363d4b; stroke:none;" d="M181 127L180 130L181 127M206 127L207 128L206 127M215 127L216 128L215 127z"/>
<path style="fill:#95999f; stroke:none;" d="M216.667 127.333L217.333 127.667L216.667 127.333M29 128L30 129L29 128M47 128L48 129L47 128z"/>
<path style="fill:#363d4b; stroke:none;" d="M48.6667 128.333L49.3333 128.667L48.6667 128.333M68 128L68 129L71 129L71 136L72 136C71.9534 132.065 72.046 129.343 68 128z"/>
<path style="fill:#95999f; stroke:none;" d="M71 128L72 129L71 128z"/>
<path style="fill:#363d4b; stroke:none;" d="M104 128L105 129L104 128z"/>
<path style="fill:#95999f; stroke:none;" d="M117.333 128.667L117.667 129.333L117.333 128.667M125.333 128.667L125.667 129.333L125.333 128.667z"/>
<path style="fill:#363d4b; stroke:none;" d="M136.333 128.667L136.667 129.333L136.333 128.667M147 128L148 129L147 128z"/>
<path style="fill:#95999f; stroke:none;" d="M148.333 128.667L148.667 129.333L148.333 128.667M159.333 128.667L159.667 129.333L159.333 128.667z"/>
<path style="fill:#363d4b; stroke:none;" d="M162 128L163 129L162 128M219 128L220 129L219 128z"/>
<path style="fill:#95999f; stroke:none;" d="M220.667 128.333L221.333 128.667L220.667 128.333z"/>
<path style="fill:#363d4b; stroke:none;" d="M248 128L250 130L248 128M28 129L29 130L28 129z"/>
<path style="fill:#95999f; stroke:none;" d="M45 129L46 130L45 129z"/>
<path style="fill:#363d4b; stroke:none;" d="M46 129L47 130L46 129M118 129L118 132L119 132L118 129M167 129L168 130L167 129M222 129L223 130L222 129z"/>
<path style="fill:#95999f; stroke:none;" d="M223 129L224 130L223 129M248 129L249 130L248 129M28 130L29 131L28 130M44 130L45 131L44 130M105.333 130.667L105.667 131.333L105.333 130.667M135.333 130.667L135.667 131.333L135.333 130.667z"/>
<path style="fill:#363d4b; stroke:none;" d="M148 130L148 133L149 133L148 130M160.333 130.667L160.667 131.333L160.333 130.667z"/>
<path style="fill:#95999f; stroke:none;" d="M167.333 130.667L167.667 131.333L167.333 130.667M179.333 130.667L179.667 131.333L179.333 130.667z"/>
<path style="fill:#363d4b; stroke:none;" d="M225 130L226 131L225 130z"/>
<path style="fill:#95999f; stroke:none;" d="M226.667 130.333L227.333 130.667L226.667 130.333M249.333 130.667L249.667 131.333L249.333 130.667M43 131L44 132L43 131z"/>
<path style="fill:#363d4b; stroke:none;" d="M124.333 131.667L124.667 132.333L124.333 131.667M181 131L182 132L181 131M228 131L229 132L228 131z"/>
<path style="fill:#95999f; stroke:none;" d="M229.667 131.333L230.333 131.667L229.667 131.333z"/>
<path style="fill:#363d4b; stroke:none;" d="M251 131L252 132L251 131M27 132L28 133L27 132z"/>
<path style="fill:#95999f; stroke:none;" d="M42 132L43 133L42 132z"/>
<path style="fill:#363d4b; stroke:none;" d="M44.6667 132.333L45.3333 132.667L44.6667 132.333M105.333 132.667L105.667 133.333L105.333 132.667z"/>
<path style="fill:#95999f; stroke:none;" d="M118.333 132.667L118.667 133.333L118.333 132.667z"/>
<path style="fill:#363d4b; stroke:none;" d="M135 132L135 135L136 135L135 132z"/>
<path style="fill:#95999f; stroke:none;" d="M149.333 132.667L149.667 133.333L149.333 132.667M160 132L160 135L161 135L160 132z"/>
<path style="fill:#363d4b; stroke:none;" d="M166.333 132.667L166.667 133.333L166.333 132.667M179 132L180 133L179 132M230 132L230 133L233 134L230 132z"/>
<path style="fill:#95999f; stroke:none;" d="M232 132L233 133L232 132z"/>
<path style="fill:#363d4b; stroke:none;" d="M250 132L251 133L250 132z"/>
<path style="fill:#95999f; stroke:none;" d="M27 133L28 134L27 133z"/>
<path style="fill:#363d4b; stroke:none;" d="M42 133L43 134L42 133z"/>
<path style="fill:#95999f; stroke:none;" d="M124 133L125 134L124 133M178 133L179 134L178 133M233 133L233 134L236 135L233 133M250 133L251 134L250 133M41 134L42 135L41 134z"/>
<path style="fill:#363d4b; stroke:none;" d="M45 134L45 137L46 137L45 134z"/>
<path style="fill:#95999f; stroke:none;" d="M106.333 134.667L106.667 135.333L106.333 134.667M134 134L134 137L135 137L134 134z"/>
<path style="fill:#363d4b; stroke:none;" d="M145 134L146 135L145 134M149.333 134.667L149.667 135.333L149.333 134.667z"/>
<path style="fill:#95999f; stroke:none;" d="M166.333 134.667L166.667 135.333L166.333 134.667z"/>
<path style="fill:#363d4b; stroke:none;" d="M178 134L178 137L179 137L178 134M234 134L235 135L234 134M26.3333 135.667L26.6667 136.333L26.3333 135.667M41 135L43 137L43 135L41 135M119 135L120 136L119 135M123.333 135.667L123.667 136.333L123.333 135.667M161.333 135.667L161.667 136.333L161.333 135.667M232 135L233 136L232 135M251.333 135.667L251.667 136.333L251.333 135.667z"/>
<path style="fill:#95999f; stroke:none;" d="M71 136L71 139L72 139L71 136z"/>
<path style="fill:#363d4b; stroke:none;" d="M105.667 136.333L106.333 136.667L105.667 136.333z"/>
<path style="fill:#95999f; stroke:none;" d="M119.333 136.667L119.667 137.333L119.333 136.667z"/>
<path style="fill:#363d4b; stroke:none;" d="M145 136L146 137L145 136M148 136L149 137L148 136z"/>
<path style="fill:#95999f; stroke:none;" d="M150.333 136.667L150.667 137.333L150.333 136.667z"/>
<path style="fill:#363d4b; stroke:none;" d="M164 136L166 138L166 136L164 136z"/>
<path style="fill:#95999f; stroke:none;" d="M177.333 136.667L177.667 137.333L177.333 136.667z"/>
<path style="fill:#363d4b; stroke:none;" d="M236.333 136.667L236.667 137.333L236.333 136.667z"/>
<path style="fill:#95999f; stroke:none;" d="M26 137L26 144L27 144L26 137z"/>
<path style="fill:#363d4b; stroke:none;" d="M41.3333 137.667L41.6667 138.333L41.3333 137.667M70.3333 137.667L70.6667 138.333L70.3333 137.667z"/>
<path style="fill:#95999f; stroke:none;" d="M107 137L108 138L107 137M123.333 137.667L123.667 138.333L123.333 137.667z"/>
<path style="fill:#363d4b; stroke:none;" d="M134.333 137.667L134.667 138.333L134.333 137.667z"/>
<path style="fill:#95999f; stroke:none;" d="M161 137L162 138L161 137M237.333 137.667L237.667 138.333L237.333 137.667M251 137L251 141L252 141L251 137M40 138L40 141L41 141L40 138z"/>
<path style="fill:#363d4b; stroke:none;" d="M107.333 138.667L107.667 139.333L107.333 138.667M120.333 138.667L120.667 139.333L120.333 138.667M122 138L122 141L123 141L122 138M150.333 138.667L150.667 139.333L150.333 138.667z"/>
<path style="fill:#95999f; stroke:none;" d="M165.333 138.667L165.667 139.333L165.333 138.667z"/>
<path style="fill:#363d4b; stroke:none;" d="M177.333 138.667L177.667 139.333L177.333 138.667M68 139L69 140L68 139z"/>
<path style="fill:#95999f; stroke:none;" d="M133.333 139.667L133.667 140.333L133.333 139.667z"/>
<path style="fill:#363d4b; stroke:none;" d="M162.333 139.667L162.667 140.333L162.333 139.667M237 139L237 142L238 142L237 139M65 140L66 141L65 140M70 140L71 141L70 140z"/>
<path style="fill:#95999f; stroke:none;" d="M108.333 140.667L108.667 141.333L108.333 140.667M120.333 140.667L120.667 141.333L120.333 140.667M151 140L151 143L152 143L151 140M176 140L177 141L176 140z"/>
<path style="fill:#363d4b; stroke:none;" d="M199 140L200 141L199 140M46 141L47 142L46 141z"/>
<path style="fill:#95999f; stroke:none;" d="M70 141L71 142L70 141M122.333 141.667L122.667 142.333L122.333 141.667z"/>
<path style="fill:#363d4b; stroke:none;" d="M133 141L134 142L133 141z"/>
<path style="fill:#95999f; stroke:none;" d="M162.333 141.667L162.667 142.333L162.333 141.667z"/>
<path style="fill:#363d4b; stroke:none;" d="M164 141L165 142L164 141M176 141L177 142L176 141M180 141L181 142L180 141M251 141L251 144L252 144L251 141M41 142L41 144L43 144L41 142z"/>
<path style="fill:#95999f; stroke:none;" d="M69 142L70 143L69 142z"/>
<path style="fill:#363d4b; stroke:none;" d="M108.333 142.667L108.667 143.333L108.333 142.667M121.333 142.667L121.667 143.333L121.333 142.667z"/>
<path style="fill:#95999f; stroke:none;" d="M164 142L165 143L164 142z"/>
<path style="fill:#363d4b; stroke:none;" d="M198.667 142.333L199.333 142.667L198.667 142.333z"/>
<path style="fill:#95999f; stroke:none;" d="M237.333 142.667L237.667 143.333L237.333 142.667z"/>
<path style="fill:#363d4b; stroke:none;" d="M45 143L46 144L45 143M47 143L48 144L47 143M68 143L66 146L68 143M86.3333 143.667L86.6667 144.333L86.3333 143.667z"/>
<path style="fill:#95999f; stroke:none;" d="M109.333 143.667L109.667 144.333L109.333 143.667M132.333 143.667L132.667 144.333L132.333 143.667z"/>
<path style="fill:#363d4b; stroke:none;" d="M149 143L150 144L149 143M151 143L152 144L151 143M163 143L164 144L163 143z"/>
<path style="fill:#95999f; stroke:none;" d="M175 143L176 144L175 143z"/>
<path style="fill:#363d4b; stroke:none;" d="M182 143L183 144L182 143M236.333 143.667L236.667 144.333L236.333 143.667M26.3333 144.667L26.6667 145.333L26.3333 144.667z"/>
<path style="fill:#95999f; stroke:none;" d="M41 144L42 145L41 144M68 144L69 145L68 144M121 144L122 145L121 144M163.333 144.667L163.667 145.333L163.333 144.667z"/>
<path style="fill:#363d4b; stroke:none;" d="M175.333 144.667L175.667 145.333L175.333 144.667M193 144L194 145L193 144M42 145L43 146L42 145M46 145L47 146L46 145z"/>
<path style="fill:#95999f; stroke:none;" d="M67 145L68 146L67 145M86.3333 145.667L86.6667 146.333L86.3333 145.667z"/>
<path style="fill:#363d4b; stroke:none;" d="M109.333 145.667L109.667 146.333L109.333 145.667M132.333 145.667L132.667 146.333L132.333 145.667z"/>
<path style="fill:#95999f; stroke:none;" d="M152.333 145.667L152.667 146.333L152.333 145.667z"/>
<path style="fill:#363d4b; stroke:none;" d="M195 145L196 146L195 145M199.667 145.333L200.333 145.667L199.667 145.333M202 146L202 147L205 146L204 148L205 148L206 148L206 146L202 146z"/>
<path style="fill:#95999f; stroke:none;" d="M236 145L237 146L236 145M250 145L251 146L250 145M27.3333 146.667L27.6667 147.333L27.3333 146.667M42 146L43 147L42 146z"/>
<path style="fill:#363d4b; stroke:none;" d="M65 146L66 147L65 146z"/>
<path style="fill:#95999f; stroke:none;" d="M174.333 146.667L174.667 147.333L174.333 146.667z"/>
<path style="fill:#363d4b; stroke:none;" d="M197 146L198 147L197 146z"/>
<path style="fill:#95999f; stroke:none;" d="M198 146L199 147L198 146M201 146L202 147L201 146z"/>
<path style="fill:#282f3a; stroke:none;" d="M203.667 146.333L204.333 146.667L203.667 146.333z"/>
<path style="fill:#363d4b; stroke:none;" d="M233 146L233 147L236 147L233 146M250 146L251 147L250 146z"/>
<path style="fill:#95999f; stroke:none;" d="M43 147L44 148L43 147z"/>
<path style="fill:#363d4b; stroke:none;" d="M47 147L48 148L47 147M63 147L64 148L63 147z"/>
<path style="fill:#95999f; stroke:none;" d="M64 147L65 148L64 147z"/>
<path style="fill:#363d4b; stroke:none;" d="M87 147L88 148L87 147z"/>
<path style="fill:#95999f; stroke:none;" d="M110 147L111 148L110 147M131 147L131 150L132 150L131 147z"/>
<path style="fill:#363d4b; stroke:none;" d="M134 147L135 148L134 147M152 147L153 148L152 147z"/>
<path style="fill:#95999f; stroke:none;" d="M197 147L197 154L198 154L197 147M203 147L204 148L203 147z"/>
<path style="fill:#363d4b; stroke:none;" d="M227 147L228 148L227 147z"/>
<path style="fill:#95999f; stroke:none;" d="M234 147L235 148L234 147M249.333 147.667L249.667 148.333L249.333 147.667z"/>
<path style="fill:#363d4b; stroke:none;" d="M27 148L28 149L27 148z"/>
<path style="fill:#95999f; stroke:none;" d="M44 148L45 149L44 148z"/>
<path style="fill:#363d4b; stroke:none;" d="M56 148L57 149L56 148z"/>
<path style="fill:#95999f; stroke:none;" d="M62.6667 148.333L63.3333 148.667L62.6667 148.333M87 148L88 149L87 148z"/>
<path style="fill:#363d4b; stroke:none;" d="M110.333 148.667L110.667 149.333L110.333 148.667M174 148L175 149L174 148z"/>
<path style="fill:#95999f; stroke:none;" d="M206 148L207 149L206 148z"/>
<path style="fill:#363d4b; stroke:none;" d="M207 148L208 149L207 148M210 148L210 150L212 148L210 148M221 148L222 149L221 148M232 148L233 149L232 148z"/>
<path style="fill:#95999f; stroke:none;" d="M233 148L234 149L233 148M28 149L30 152L28 149M45 149L46 150L45 149z"/>
<path style="fill:#363d4b; stroke:none;" d="M46 149L46 150L55 151L55 150L46 149M57 149L57 150L60 150L57 149z"/>
<path style="fill:#95999f; stroke:none;" d="M60 149L61 150L60 149z"/>
<path style="fill:#363d4b; stroke:none;" d="M88 149L89 150L88 149z"/>
<path style="fill:#95999f; stroke:none;" d="M153 149L154 150L153 149M173.333 149.667L173.667 150.333L173.333 149.667M209 149L210 150L209 149z"/>
<path style="fill:#363d4b; stroke:none;" d="M213 149L214 150L213 149M217 150L217 151L228 150L217 150M230 149L231 150L230 149z"/>
<path style="fill:#95999f; stroke:none;" d="M231 149L232 150L231 149M248 149L249 150L248 149z"/>
<path style="fill:#363d4b; stroke:none;" d="M250 149L251 150L250 149M27 150L28 151L27 150z"/>
<path style="fill:#95999f; stroke:none;" d="M47.6667 150.333L48.3333 150.667L47.6667 150.333M55 150L55 151L59 151L55 150M72 150L74 152L72 150M88 150L87 157C89.4176 154.566 89.8944 152.953 88 150M111.333 150.667L111.667 151.333L111.333 150.667z"/>
<path style="fill:#363d4b; stroke:none;" d="M131 150L132 151L131 150M153 150L153 153L154 153L153 150z"/>
<path style="fill:#95999f; stroke:none;" d="M213 150L213 151L217 151L213 150M227.667 150.333L228.333 150.667L227.667 150.333z"/>
<path style="fill:#363d4b; stroke:none;" d="M248 150L249 151L248 150M28 151L28 153L30 153L28 151M72 151L73 152L72 151M89 151L90 152L89 151M173 151L174 152L173 151z"/>
<path style="fill:#95999f; stroke:none;" d="M247 151L248 152L247 151z"/>
<path style="fill:#363d4b; stroke:none;" d="M249 151L250 152L249 151M71 152L68 156L71 152M73 152L74 153L73 152M107 152L108 153L107 152M111.333 152.667L111.667 153.333L111.333 152.667z"/>
<path style="fill:#95999f; stroke:none;" d="M130 152L131 153L130 152M154 152L154 155L155 155L154 152M172.333 152.667L172.667 153.333L172.333 152.667z"/>
<path style="fill:#363d4b; stroke:none;" d="M192 152L193 153L192 152z"/>
<path style="fill:#95999f; stroke:none;" d="M246 152L247 153L246 152M30 153L35 158L30 153M69 153L70 154L69 153M74 153L75 154L74 153M112.333 153.667L112.667 154.333L112.333 153.667z"/>
<path style="fill:#363d4b; stroke:none;" d="M130.333 153.667L130.667 154.333L130.333 153.667M246 153L247 154L246 153M30 154L31 155L30 154z"/>
<path style="fill:#95999f; stroke:none;" d="M68 154L69 155L68 154z"/>
<path style="fill:#363d4b; stroke:none;" d="M74 154L75 155L74 154M172 154L171 158L172 158L172 154M197 154L201 158L201 157L197 154z"/>
<path style="fill:#95999f; stroke:none;" d="M244 154L242 157L244 154z"/>
<path style="fill:#363d4b; stroke:none;" d="M245 154L243 158L245 154M29 155L30 156L29 155M31 155L32 156L31 155z"/>
<path style="fill:#95999f; stroke:none;" d="M67 155L68 156L67 155M75 155L77 157L75 155z"/>
<path style="fill:#363d4b; stroke:none;" d="M89 155L90 156L89 155M112.333 155.667L112.667 156.333L112.333 155.667z"/>
<path style="fill:#95999f; stroke:none;" d="M129.333 155.667L129.667 156.333L129.333 155.667z"/>
<path style="fill:#363d4b; stroke:none;" d="M154 155L155 159L156 159L154 155z"/>
<path style="fill:#95999f; stroke:none;" d="M171.333 155.667L171.667 156.333L171.333 155.667M198 155L199 156L198 155z"/>
<path style="fill:#363d4b; stroke:none;" d="M32 156L33 157L32 156z"/>
<path style="fill:#95999f; stroke:none;" d="M66 156L67 157L66 156z"/>
<path style="fill:#363d4b; stroke:none;" d="M75 156L76 157L75 156M88 156L89 157L88 156M134.333 156.667L134.667 157.333L134.333 156.667z"/>
<path style="fill:#95999f; stroke:none;" d="M199 156L200 157L199 156z"/>
<path style="fill:#282f3a; stroke:none;" d="M243 156L244 157L243 156z"/>
<path style="fill:#363d4b; stroke:none;" d="M33 157L34 158L33 157z"/>
<path style="fill:#95999f; stroke:none;" d="M64 157L65 158L64 157z"/>
<path style="fill:#363d4b; stroke:none;" d="M65 157L66 158L65 157M67 157L68 158L67 157M76.3333 157.667L76.6667 158.333L76.3333 157.667z"/>
<path style="fill:#95999f; stroke:none;" d="M85 157L84 159L85 157z"/>
<path style="fill:#363d4b; stroke:none;" d="M86 157L87 158L86 157z"/>
<path style="fill:#95999f; stroke:none;" d="M113 157L114 158L113 157z"/>
<path style="fill:#363d4b; stroke:none;" d="M129 157L128 160L129 157M132.333 157.667L132.667 158.333L132.333 157.667z"/>
<path style="fill:#95999f; stroke:none;" d="M155 157L156 158L155 157z"/>
<path style="fill:#363d4b; stroke:none;" d="M241.333 157.667L241.667 158.333L241.333 157.667M246 157L245 159L246 157M29 158L30 159L29 158z"/>
<path style="fill:#95999f; stroke:none;" d="M35 158L36 159L35 158M60 159L60 160L64 159L60 159z"/>
<path style="fill:#363d4b; stroke:none;" d="M69 158L70 159L69 158z"/>
<path style="fill:#95999f; stroke:none;" d="M77 158L78 159L77 158z"/>
<path style="fill:#363d4b; stroke:none;" d="M85 158L86 159L85 158M88 158L89 159L88 158M113 158L114 159L113 158z"/>
<path style="fill:#95999f; stroke:none;" d="M128 158L129 159L128 158z"/>
<path style="fill:#363d4b; stroke:none;" d="M152 158L153 159L152 158z"/>
<path style="fill:#95999f; stroke:none;" d="M170 158L171 159L170 158z"/>
<path style="fill:#363d4b; stroke:none;" d="M196 158L197 159L196 158M202 158L203 159L202 158z"/>
<path style="fill:#95999f; stroke:none;" d="M203 158L204 159L203 158M236 159L236 160L240 159L236 159z"/>
<path style="fill:#363d4b; stroke:none;" d="M36.3333 159.667L36.6667 160.333L36.3333 159.667z"/>
<path style="fill:#95999f; stroke:none;" d="M37 159L38 160L37 159z"/>
<path style="fill:#363d4b; stroke:none;" d="M62 159L63 160L62 159z"/>
<path style="fill:#95999f; stroke:none;" d="M78.6667 159.333L79.3333 159.667L78.6667 159.333M82 159L83 160L82 159z"/>
<path style="fill:#363d4b; stroke:none;" d="M83 159L84 160L83 159M95 159L96 160L95 159M114 159L115 160L114 159z"/>
<path style="fill:#95999f; stroke:none;" d="M115.667 159.333L116.333 159.667L115.667 159.333M126.667 159.333L127.333 159.667L126.667 159.333z"/>
<path style="fill:#363d4b; stroke:none;" d="M156 159L156 160L168 161L168 160L156 159z"/>
<path style="fill:#95999f; stroke:none;" d="M157.667 159.333L158.333 159.667L157.667 159.333M168.667 159.333L169.333 159.667L168.667 159.333z"/>
<path style="fill:#363d4b; stroke:none;" d="M199 159L200 160L199 159M204 159L205 160L204 159z"/>
<path style="fill:#95999f; stroke:none;" d="M205.667 159.333L206.333 159.667L205.667 159.333z"/>
<path style="fill:#363d4b; stroke:none;" d="M238 159L239 160L238 159M243 159L244 160L243 159M33.3333 160.667L33.6667 161.333L33.3333 160.667M39.3333 160.667L39.6667 161.333L39.3333 160.667z"/>
<path style="fill:#95999f; stroke:none;" d="M40 160L41 161L40 160M57 160L58 161L57 160z"/>
<path style="fill:#363d4b; stroke:none;" d="M58.6667 160.333L59.3333 160.667L58.6667 160.333M79 160L79 161L82 161L79 160M116 160L116 161L119 161L116 160M120 160L120 161L125 161L120 160M207.667 160.333L208.333 160.667L207.667 160.333z"/>
<path style="fill:#95999f; stroke:none;" d="M209.667 160.333L210.333 160.667L209.667 160.333M233.667 160.333L234.333 160.667L233.667 160.333z"/>
<path style="fill:#363d4b; stroke:none;" d="M235 160L236 161L235 160M42 161L43 162L42 161z"/>
<path style="fill:#95999f; stroke:none;" d="M43 161L43 162L47 162L43 161M51 161L51 162L55 162L51 161z"/>
<path style="fill:#363d4b; stroke:none;" d="M55 161L56 162L55 161M212 161L213 162L212 161z"/>
<path style="fill:#95999f; stroke:none;" d="M213 161L213 162L217 162L213 161M228 161L228 162L232 162L228 161z"/>
<path style="fill:#363d4b; stroke:none;" d="M40 162L41 163L40 162M47 162L48 163L47 162M216 162L216 163L228 163L216 162M40 165L41 166L40 165M231 165L232 166L231 165M21 176L22 177L21 176M238 176L238 177L250 177L238 176M232 177L232 178L235 178L232 177z"/>
<path style="fill:#95999f; stroke:none;" d="M235 177L236 178L235 177z"/>
<path style="fill:#eb982a; stroke:none;" d="M216 187C225.054 188.441 240.008 181.871 247.682 188.589C255.007 195 244.098 213.766 242 221C253.409 219.238 266.657 191.887 259.972 181.279C257.772 177.788 251.712 177.35 248 177.09C237.401 176.347 222.748 177.938 216 187z"/>
<path style="fill:#95999f; stroke:none;" d="M251 177L251 178L254 178L251 177z"/>
<path style="fill:#363d4b; stroke:none;" d="M254 177L254 178L257 178L254 177M17 178L18 179L17 178M22 178L23 179L22 178M220 178L221 179L220 178M228.667 178.333L229.333 178.667L228.667 178.333z"/>
<path style="fill:#95999f; stroke:none;" d="M230.667 178.333L231.333 178.667L230.667 178.333M256.667 178.333L257.333 178.667L256.667 178.333z"/>
<path style="fill:#363d4b; stroke:none;" d="M258 178L258 179L261 180L258 178M216 179L217 180L216 179M225 179L226 180L225 179z"/>
<path style="fill:#95999f; stroke:none;" d="M226.667 179.333L227.333 179.667L226.667 179.333M259 179L260 180L259 179z"/>
<path style="fill:#363d4b; stroke:none;" d="M16 182L16 183L23 183L23 182L21 180L16 182M23 180L24 181L23 180M220 180L221 181L220 180M223 180L224 181L223 180z"/>
<path style="fill:#95999f; stroke:none;" d="M224 180L225 181L224 180M260 180L261 181L260 180z"/>
<path style="fill:#363d4b; stroke:none;" d="M221 181L222 182L221 181M261.333 181.667L261.667 182.333L261.333 181.667z"/>
<path style="fill:#95999f; stroke:none;" d="M17 182L16 184L17 182z"/>
<path style="fill:#eb982a; stroke:none;" d="M18 182L17 183C22.863 195.468 42.1157 205.203 54 211.244C93.8714 231.51 137.511 236.104 181 226.789C196.904 223.383 213.081 217.201 227 208.796C230.025 206.97 239.77 202.625 239.079 198.192C238.266 192.977 229.496 197.417 227 198.308C214.164 202.89 201.393 207.121 188 209.8C146.591 218.084 103.04 214.994 63 201.645C47.5408 196.491 33.3885 186.518 18 182z"/>
<path style="fill:#95999f; stroke:none;" d="M20 182L21 183L20 182z"/>
<path style="fill:#363d4b; stroke:none;" d="M216 182L217 183L216 182M219 182L220 183L219 182z"/>
<path style="fill:#95999f; stroke:none;" d="M22 183L23 184L22 183z"/>
<path style="fill:#363d4b; stroke:none;" d="M217 183L215 188L217 183z"/>
<path style="fill:#95999f; stroke:none;" d="M218 183L219 184L218 183M261 183L261 188L262 188L261 183z"/>
<path style="fill:#363d4b; stroke:none;" d="M16 184L20 189L16 184M24 184L24 185L27 186L24 184M32 184L31 186L32 184z"/>
<path style="fill:#95999f; stroke:none;" d="M217 184L218 185L217 184M17 185L18 186L17 185M25 185L26 186L25 185M216 185L217 186L216 185M18 186L19 187L18 186z"/>
<path style="fill:#363d4b; stroke:none;" d="M28 186L29 187L28 186M38.6667 186.333L39.3333 186.667L38.6667 186.333z"/>
<path style="fill:#95999f; stroke:none;" d="M230.667 186.333L231.333 186.667L230.667 186.333z"/>
<path style="fill:#363d4b; stroke:none;" d="M232 186L232 187L241 187L232 186z"/>
<path style="fill:#95999f; stroke:none;" d="M241.667 186.333L242.333 186.667L241.667 186.333M19 187L20 188L19 187M29 187L30 188L29 187z"/>
<path style="fill:#363d4b; stroke:none;" d="M30 187L31 188L30 187z"/>
<path style="fill:#95999f; stroke:none;" d="M216.667 187.333L217.333 187.667L216.667 187.333M220.667 187.333L221.333 187.667L220.667 187.333z"/>
<path style="fill:#363d4b; stroke:none;" d="M222 187L222 188L228 188L222 187M245 187L246 188L245 187z"/>
<path style="fill:#95999f; stroke:none;" d="M246.667 187.333L247.333 187.667L246.667 187.333M20 188L21 189L20 188M31 188L32 189L31 188z"/>
<path style="fill:#363d4b; stroke:none;" d="M32 188L33 189L32 188M217.667 188.333L218.333 188.667L217.667 188.333M247 188L250 191L247 188M261 188L261 193L262 193L261 188M17 189L18 190L17 189M21 189L22 190L21 189z"/>
<path style="fill:#95999f; stroke:none;" d="M33 189L34 190L33 189z"/>
<path style="fill:#363d4b; stroke:none;" d="M34 189L34 190L39 192L39 191L34 189M216 189L217 190L216 189M22 190L26 194L22 190z"/>
<path style="fill:#95999f; stroke:none;" d="M23 190L24 191L23 190M35 190L36 191L35 190M24 191L25 192L24 191M37 191L38 192L37 191M25 192L26 193L25 192z"/>
<path style="fill:#363d4b; stroke:none;" d="M40.6667 192.333L41.3333 192.667L40.6667 192.333z"/>
<path style="fill:#95999f; stroke:none;" d="M260.333 192.667L260.667 193.333L260.333 192.667M26 193L27 194L26 193z"/>
<path style="fill:#363d4b; stroke:none;" d="M42.6667 193.333L43.3333 193.667L42.6667 193.333M55 193L56 194L55 193M224 193L225 194L224 193M233 193L234 194L233 193M27 194L28 195L27 194z"/>
<path style="fill:#95999f; stroke:none;" d="M44 194L45 195L44 194z"/>
<path style="fill:#363d4b; stroke:none;" d="M45 194L46 195L45 194M260 194L260 197L263 196L263 195L260 194M28 195L32 198L32 197L28 195z"/>
<path style="fill:#95999f; stroke:none;" d="M29 195L30 196L29 195M46 195L47 196L46 195z"/>
<path style="fill:#363d4b; stroke:none;" d="M47.6667 195.333L48.3333 195.667L47.6667 195.333M52 195L53 196L52 195M229 195L230 196L229 195M232.667 195.333L233.333 195.667L232.667 195.333z"/>
<path style="fill:#95999f; stroke:none;" d="M234 195L235 196L234 195M237 195L238 196L237 195z"/>
<path style="fill:#363d4b; stroke:none;" d="M238 195L239 196L238 195M249.333 195.667L249.667 196.333L249.333 195.667z"/>
<path style="fill:#95999f; stroke:none;" d="M30 196L31 197L30 196M49 196L50 197L49 196z"/>
<path style="fill:#363d4b; stroke:none;" d="M50 196L51 197L50 196M55 196L56 197L55 196M216 196L217 197L216 196M220.667 196.333L221.333 196.667L220.667 196.333M227 196L228 197L227 196M230 196L231 197L230 196z"/>
<path style="fill:#95999f; stroke:none;" d="M231 196L232 197L231 196z"/>
<path style="fill:#363d4b; stroke:none;" d="M239 196L240 197L239 196M52.6667 197.333L53.3333 197.667L52.6667 197.333M228 197L229 198L228 197z"/>
<path style="fill:#95999f; stroke:none;" d="M229 197L230 198L229 197z"/>
<path style="fill:#363d4b; stroke:none;" d="M240.333 197.667L240.667 198.333L240.333 197.667z"/>
<path style="fill:#95999f; stroke:none;" d="M249.333 197.667L249.667 198.333L249.333 197.667M259 197L260 198L259 197z"/>
<path style="fill:#363d4b; stroke:none;" d="M32 198L35 200L35 199L32 198z"/>
<path style="fill:#95999f; stroke:none;" d="M33 198L34 199L33 198M54 198L55 199L54 198z"/>
<path style="fill:#363d4b; stroke:none;" d="M55.6667 198.333L56.3333 198.667L55.6667 198.333M224.667 198.333L225.333 198.667L224.667 198.333z"/>
<path style="fill:#95999f; stroke:none;" d="M226 198L227 199L226 198z"/>
<path style="fill:#363d4b; stroke:none;" d="M259.333 198.667L259.667 199.333L259.333 198.667z"/>
<path style="fill:#95999f; stroke:none;" d="M57 199L58 200L57 199z"/>
<path style="fill:#363d4b; stroke:none;" d="M58 199L58 200L62 201L62 200L58 199M222.667 199.333L223.333 199.667L222.667 199.333M248 199L248 202L249 202L248 199M32 200L33 201L32 200M35 200L37 202L35 200z"/>
<path style="fill:#95999f; stroke:none;" d="M36 200L37 201L36 200M59 200L60 201L59 200z"/>
<path style="fill:#363d4b; stroke:none;" d="M219.667 200.333L220.333 200.667L219.667 200.333M239 200L240 201L239 200z"/>
<path style="fill:#95999f; stroke:none;" d="M258 200L259 201L258 200z"/>
<path style="fill:#363d4b; stroke:none;" d="M260 200L261 201L260 200z"/>
<path style="fill:#95999f; stroke:none;" d="M37 201L38 202L37 201M62 201L63 202L62 201z"/>
<path style="fill:#363d4b; stroke:none;" d="M63 201L63 202L68 203L68 202L63 201M210 201L211 202L210 201M213 202L213 203L218 202L213 202z"/>
<path style="fill:#95999f; stroke:none;" d="M218 201L219 202L218 201M238 201L239 202L238 201z"/>
<path style="fill:#363d4b; stroke:none;" d="M258.333 201.667L258.667 202.333L258.333 201.667M38 202L39 203L38 202z"/>
<path style="fill:#95999f; stroke:none;" d="M65 202L66 203L65 202z"/>
<path style="fill:#363d4b; stroke:none;" d="M95 202L96 203L95 202z"/>
<path style="fill:#95999f; stroke:none;" d="M215 202L216 203L215 202M236 202L237 203L236 202z"/>
<path style="fill:#363d4b; stroke:none;" d="M237 202L238 203L237 202M40 203L41 204L40 203z"/>
<path style="fill:#95999f; stroke:none;" d="M69 203L70 204L69 203z"/>
<path style="fill:#363d4b; stroke:none;" d="M70 203L71 204L70 203M211 203L212 204L211 203z"/>
<path style="fill:#95999f; stroke:none;" d="M212 203L213 204L212 203z"/>
<path style="fill:#363d4b; stroke:none;" d="M235 203L233 206L235 203M238 203L239 204L238 203z"/>
<path style="fill:#95999f; stroke:none;" d="M257 203L258 204L257 203z"/>
<path style="fill:#363d4b; stroke:none;" d="M41 204L42 205L41 204z"/>
<path style="fill:#95999f; stroke:none;" d="M42 204L43 205L42 204z"/>
<path style="fill:#363d4b; stroke:none;" d="M72 204L72 205L75 205L72 204M90 204L91 205L90 204M206 204L206 205L209 205L206 204z"/>
<path style="fill:#95999f; stroke:none;" d="M209 204L210 205L209 204M233 204L234 205L233 204z"/>
<path style="fill:#363d4b; stroke:none;" d="M245.333 204.667L245.667 205.333L245.333 204.667M247 204L248 205L247 204M257.333 204.667L257.667 205.333L257.333 204.667M39 205L40 206L39 205M43 205L44 206L43 205z"/>
<path style="fill:#95999f; stroke:none;" d="M75.6667 205.333L76.3333 205.667L75.6667 205.333z"/>
<path style="fill:#363d4b; stroke:none;" d="M77.6667 205.333L78.3333 205.667L77.6667 205.333M93 205L94 206L93 205M200.333 205.667L200.667 206.333L200.333 205.667M203.667 205.333L204.333 205.667L203.667 205.333z"/>
<path style="fill:#95999f; stroke:none;" d="M205 205L206 206L205 205M232 205L233 206L232 205M247 205L248 206L247 205z"/>
<path style="fill:#363d4b; stroke:none;" d="M34 206L35 207L34 206M42 206L43 207L42 206M44 206L45 207L44 206z"/>
<path style="fill:#95999f; stroke:none;" d="M45 206L46 207L45 206z"/>
<path style="fill:#363d4b; stroke:none;" d="M80 206L80 207L83 207L80 206z"/>
<path style="fill:#95999f; stroke:none;" d="M201 206L202 207L201 206M230 206L231 207L230 206z"/>
<path style="fill:#363d4b; stroke:none;" d="M231 206L232 207L231 206M246 206L244 207L245 211L246 211L246 206M256 206L257 207L256 206M46 207L47 208L46 207z"/>
<path style="fill:#95999f; stroke:none;" d="M47 207L48 208L47 207M83 207L84 208L83 207z"/>
<path style="fill:#363d4b; stroke:none;" d="M84 207L84 208L88 208L84 207M194 207L194 208L197 208L194 207z"/>
<path style="fill:#95999f; stroke:none;" d="M197.667 207.333L198.333 207.667L197.667 207.333z"/>
<path style="fill:#363d4b; stroke:none;" d="M229.667 207.333L230.333 207.667L229.667 207.333M260 207L261 208L260 207M48 208L49 209L48 208z"/>
<path style="fill:#95999f; stroke:none;" d="M87.6667 208.333L88.3333 208.667L87.6667 208.333z"/>
<path style="fill:#363d4b; stroke:none;" d="M89.6667 208.333L90.3333 208.667L89.6667 208.333M184 208L185 209L184 208M190 208L190 209L193 209L190 208z"/>
<path style="fill:#95999f; stroke:none;" d="M193.667 208.333L194.333 208.667L193.667 208.333M227 208L228 209L227 208z"/>
<path style="fill:#363d4b; stroke:none;" d="M228 208L229 209L228 208z"/>
<path style="fill:#95999f; stroke:none;" d="M246 208L247 209L246 208z"/>
<path style="fill:#363d4b; stroke:none;" d="M255 208L256 209L255 208M49 209L50 210L49 209z"/>
<path style="fill:#95999f; stroke:none;" d="M50 209L51 210L50 209M92 209L93 210L92 209z"/>
<path style="fill:#363d4b; stroke:none;" d="M93.6667 209.333L94.3333 209.667L93.6667 209.333M96 209L97 210L96 209M186.667 209.333L187.333 209.667L186.667 209.333z"/>
<path style="fill:#95999f; stroke:none;" d="M188.667 209.333L189.333 209.667L188.667 209.333M225 209L226 210L225 209z"/>
<path style="fill:#363d4b; stroke:none;" d="M226 209L227 210L226 209M230.667 209.333L231.333 209.667L230.667 209.333z"/>
<path style="fill:#95999f; stroke:none;" d="M254 209L255 210L254 209z"/>
<path style="fill:#363d4b; stroke:none;" d="M51 210L52 211L51 210z"/>
<path style="fill:#95999f; stroke:none;" d="M52 210L53 211L52 210M96 210L96 211L99 211L96 210z"/>
<path style="fill:#363d4b; stroke:none;" d="M99 210L99 211L102 211L99 210M179 210L179 211L184 211L179 210z"/>
<path style="fill:#95999f; stroke:none;" d="M184 210L185 211L184 210z"/>
<path style="fill:#363d4b; stroke:none;" d="M224.667 210.333L225.333 210.667L224.667 210.333M254 210L253 213L254 210M50 211L51 212L50 211M53 211L54 212L53 211z"/>
<path style="fill:#95999f; stroke:none;" d="M54 211L55 212L54 211M103.667 211.333L104.333 211.667L103.667 211.333z"/>
<path style="fill:#363d4b; stroke:none;" d="M105 211L105 212L108 212L105 211M173 211L173 212L176 212L173 211z"/>
<path style="fill:#95999f; stroke:none;" d="M176 211L176 212L180 212L176 211z"/>
<path style="fill:#363d4b; stroke:none;" d="M222.667 211.333L223.333 211.667L222.667 211.333z"/>
<path style="fill:#95999f; stroke:none;" d="M245 211L246 212L245 211M253 211L254 212L253 211z"/>
<path style="fill:#363d4b; stroke:none;" d="M48 212L49 213L48 212M52 212L53 213L52 212M55 212L56 213L55 212z"/>
<path style="fill:#95999f; stroke:none;" d="M56 212L57 213L56 212M109 212L109 213L112 213L109 212z"/>
<path style="fill:#363d4b; stroke:none;" d="M112 212L112 213L117 213L112 212M151 213L151 214L170 213L151 213z"/>
<path style="fill:#95999f; stroke:none;" d="M170 212L170 213L173 213L170 212z"/>
<path style="fill:#363d4b; stroke:none;" d="M218 213L218 214L222 213L218 213M244 212L245 213L244 212M57 213L58 214L57 213z"/>
<path style="fill:#95999f; stroke:none;" d="M58 213L59 214L58 213M118 213L118 214L121 214L118 213z"/>
<path style="fill:#363d4b; stroke:none;" d="M121 213L121 214L133 214L121 213z"/>
<path style="fill:#95999f; stroke:none;" d="M162.667 213.333L163.333 213.667L162.667 213.333M244 213L245 214L244 213z"/>
<path style="fill:#363d4b; stroke:none;" d="M252 213L251 216L252 213M55 214L56 215L55 214M59 214L60 215L59 214z"/>
<path style="fill:#95999f; stroke:none;" d="M60 214L61 215L60 214z"/>
<path style="fill:#363d4b; stroke:none;" d="M216.667 214.333L217.333 214.667L216.667 214.333M243.333 214.667L243.667 215.333L243.333 214.667z"/>
<path style="fill:#95999f; stroke:none;" d="M251 214L252 215L251 214z"/>
<path style="fill:#363d4b; stroke:none;" d="M61 215L62 216L61 215z"/>
<path style="fill:#95999f; stroke:none;" d="M62 215L63 216L62 215M214 215L215 216L214 215z"/>
<path style="fill:#363d4b; stroke:none;" d="M215 215L216 216L215 215M63.3333 216.667L63.6667 217.333L63.3333 216.667z"/>
<path style="fill:#95999f; stroke:none;" d="M64.6667 216.333L65.3333 216.667L64.6667 216.333z"/>
<path style="fill:#363d4b; stroke:none;" d="M212.667 216.333L213.333 216.667L212.667 216.333M250 216L251 217L250 216M65.6667 217.333L66.3333 217.667L65.6667 217.333z"/>
<path style="fill:#95999f; stroke:none;" d="M67 217L68 218L67 217M209 217L210 218L209 217z"/>
<path style="fill:#363d4b; stroke:none;" d="M210.667 217.333L211.333 217.667L210.667 217.333M241 217L243 219L243 217L241 217M249 217L250 218L249 217M68 218L68 219L72 220L72 219L68 218z"/>
<path style="fill:#95999f; stroke:none;" d="M69 218L70 219L69 218M207 218L208 219L207 218z"/>
<path style="fill:#363d4b; stroke:none;" d="M208 218L209 219L208 218M248 218L249 219L248 218z"/>
<path style="fill:#95999f; stroke:none;" d="M72 219L73 220L72 219M204 219L205 220L204 219z"/>
<path style="fill:#363d4b; stroke:none;" d="M205.667 219.333L206.333 219.667L205.667 219.333z"/>
<path style="fill:#95999f; stroke:none;" d="M242 219L243 220L242 219z"/>
<path style="fill:#363d4b; stroke:none;" d="M247 219L248 220L247 219M73 220L74 221L73 220z"/>
<path style="fill:#95999f; stroke:none;" d="M74 220L75 221L74 220M201 220L202 221L201 220z"/>
<path style="fill:#363d4b; stroke:none;" d="M202.667 220.333L203.333 220.667L202.667 220.333M208 220L209 221L208 220M246 220L247 221L246 220M75 221L75 222L80 223L80 222L75 221z"/>
<path style="fill:#95999f; stroke:none;" d="M77 221L78 222L77 221M198.667 221.333L199.333 221.667L198.667 221.333z"/>
<path style="fill:#363d4b; stroke:none;" d="M200.667 221.333L201.333 221.667L200.667 221.333z"/>
<path style="fill:#95999f; stroke:none;" d="M242 221L242 222L245 222L242 221z"/>
<path style="fill:#363d4b; stroke:none;" d="M245 221L246 222L245 221z"/>
<path style="fill:#95999f; stroke:none;" d="M80 222L81 223L80 222M196 222L197 223L196 222z"/>
<path style="fill:#363d4b; stroke:none;" d="M197 222L197 223L200 223L197 222M242 222L242 223L245 223L242 222M74 223L75 224L74 223M82 223L83 224L82 223z"/>
<path style="fill:#95999f; stroke:none;" d="M83 223L84 224L83 223M193 223L194 224L193 223z"/>
<path style="fill:#363d4b; stroke:none;" d="M194 223L195 224L194 223M254 223L255 224L254 223M84.6667 224.333L85.3333 224.667L84.6667 224.333z"/>
<path style="fill:#95999f; stroke:none;" d="M86.6667 224.333L87.3333 224.667L86.6667 224.333M189 224L190 225L189 224z"/>
<path style="fill:#363d4b; stroke:none;" d="M190.667 224.333L191.333 224.667L190.667 224.333M88.6667 225.333L89.3333 225.667L88.6667 225.333z"/>
<path style="fill:#95999f; stroke:none;" d="M90 225L91 226L90 225M186 225L187 226L186 225z"/>
<path style="fill:#363d4b; stroke:none;" d="M187.667 225.333L188.333 225.667L187.667 225.333M92.6667 226.333L93.3333 226.667L92.6667 226.333z"/>
<path style="fill:#95999f; stroke:none;" d="M182 226L183 227L182 226z"/>
<path style="fill:#363d4b; stroke:none;" d="M183 226L184 227L183 226M96.6667 227.333L97.3333 227.667L96.6667 227.333z"/>
<path style="fill:#95999f; stroke:none;" d="M98 227L99 228L98 227M177.667 227.333L178.333 227.667L177.667 227.333z"/>
<path style="fill:#363d4b; stroke:none;" d="M179 227L179 228L182 228L179 227M99 228L99 229L102 229L99 228z"/>
<path style="fill:#95999f; stroke:none;" d="M102.667 228.333L103.333 228.667L102.667 228.333M172.667 228.333L173.333 228.667L172.667 228.333z"/>
<path style="fill:#363d4b; stroke:none;" d="M174 228L174 229L179 229L174 228M183 228L184 229L183 228M105 229L105 230L108 230L105 229z"/>
<path style="fill:#95999f; stroke:none;" d="M108.667 229.333L109.333 229.667L108.667 229.333M167 229L168 230L167 229z"/>
<path style="fill:#363d4b; stroke:none;" d="M168 229L168 230L171 230L168 229M109 230L109 231L114 231L109 230z"/>
<path style="fill:#95999f; stroke:none;" d="M114 230L114 231L118 231L114 230M159 230L159 231L162 231L159 230z"/>
<path style="fill:#363d4b; stroke:none;" d="M162 230L162 231L166 231L162 230M118 231L118 232L125 232L118 231z"/>
<path style="fill:#95999f; stroke:none;" d="M125 231L125 232L128 232L125 231M148 231L148 232L152 232L148 231z"/>
<path style="fill:#363d4b; stroke:none;" d="M152 231L152 232L158 232L152 231z"/>
</svg>
