<?xml version="1.0" encoding="UTF-8"?>
<svg version="1.1" xmlns="http://www.w3.org/2000/svg" width="200" height="200">
<path d="M0 0 C66 0 132 0 200 0 C200 66 200 132 200 200 C134 200 68 200 0 200 C0 134 0 68 0 0 Z " fill="#7064E9" transform="translate(0,0)"/>
<path d="M0 0 C66 0 132 0 200 0 C200 66 200 132 200 200 C134 200 68 200 0 200 C0 134 0 68 0 0 Z M6 30 C5.38490666 33.36727447 5.70747346 36.60496822 6 40 C6.09394043 41.19334961 6.18788086 42.38669922 6.28466797 43.61621094 C6.6340664 47.70655597 7.02921302 51.79023782 7.4375 55.875 C7.57402655 57.2694864 7.71009667 58.66401757 7.84570312 60.05859375 C7.94532852 61.08299057 7.94532852 61.08299057 8.04696655 62.12808228 C8.36633798 65.41856237 8.68413912 68.70918026 9 72 C9.10296387 73.06814941 9.20592773 74.13629883 9.31201172 75.23681641 C11.54882657 99.93885671 9.238295 124.40222971 6.69238281 148.96826172 C6.21614934 153.60237973 5.77308363 158.21606107 5.625 162.875 C5.57601563 163.94492188 5.52703125 165.01484375 5.4765625 166.1171875 C5.7734727 169.13834999 5.7734727 169.13834999 8.0234375 171.34765625 C11.73116799 173.40588459 14.86438427 173.62735744 19 173.5625 C19.69867188 173.58634766 20.39734375 173.61019531 21.1171875 173.63476562 C25.05403232 173.62362361 26.81599847 173.14838833 29.90625 170.65625 C32.10388089 168.05988264 32.10388089 168.05988264 33.5 164.9375 C35.69077967 160.64722314 38.32624628 158.66242929 42.7734375 156.90234375 C50.63093934 154.70490679 59.4476185 155.9384777 67.51171875 156.50390625 C77.48132638 157.13662506 87.44276969 157.15109975 97.42919922 157.13037109 C100.49581849 157.12500731 103.56229136 157.13035343 106.62890625 157.13671875 C116.91977708 157.14003334 127.14404998 156.94923439 137.41162109 156.23876953 C147.64790669 155.55765051 154.88503629 155.16037162 163.6875 160.6875 C166.31704393 163.31704393 167.56231353 165.80542554 169.0078125 169.1953125 C170.00391533 171.33619216 170.00391533 171.33619216 173 173 C175.6746645 173.24840297 178.20077613 173.37018158 180.875 173.375 C181.58269531 173.39949219 182.29039062 173.42398438 183.01953125 173.44921875 C186.39799947 173.46809287 188.91821286 173.03632623 192.0078125 171.6640625 C195.2484502 167.33050385 194.40829916 163.23762019 194 158 C193.95214355 157.34666687 193.90428711 156.69333374 193.85498047 156.02020264 C193.57283185 152.19007935 193.26086645 148.3630533 192.93261719 144.53662109 C190.16641446 112.19712525 189.98929883 79.89799013 193.33935547 47.57910156 C193.77665906 43.23913204 194.11268329 38.90758141 194.24609375 34.546875 C194.27243896 33.74604492 194.29878418 32.94521484 194.32592773 32.12011719 C193.91445003 29.44350864 193.12785079 28.62672314 191 27 C187.55334258 25.85111419 184.75648095 25.7960653 181.125 25.75 C179.91070312 25.72421875 178.69640625 25.6984375 177.4453125 25.671875 C173.71862581 26.02679754 171.91024125 26.68229436 169 29 C167.86239516 30.83728566 167.86239516 30.83728566 167.1875 32.875 C165.01636804 37.70665841 161.6796194 39.76108559 157 42 C148.30077712 44.89974096 137.56372306 42.80520379 128.5625 42 C107.94084501 40.34299294 87.3760285 40.37456012 66.77319336 42.28808594 C46.5099485 44.16125702 46.5099485 44.16125702 40.4375 40.75 C39.65246094 40.33234375 38.86742187 39.9146875 38.05859375 39.484375 C34.7680085 37.11165698 33.24441927 34.53134623 31.5625 30.875 C29.81248906 27.65497987 29.34635655 27.19276075 26 26 C22.43532226 25.60702876 22.43532226 25.60702876 18.5625 25.625 C16.61537109 25.58246094 16.61537109 25.58246094 14.62890625 25.5390625 C10.30953684 26.08770146 8.68951604 26.54871352 6 30 Z " fill="#FDFDFE" transform="translate(0,0)"/>
<path d="M0 0 C0.88155258 -0.0033284 1.76310516 -0.0066568 2.67137146 -0.01008606 C4.52773523 -0.01511758 6.38410793 -0.01749556 8.24047852 -0.01733398 C11.02701419 -0.01950663 13.81314419 -0.03766496 16.59960938 -0.05664062 C56.44460082 -0.18540664 56.44460082 -0.18540664 70.69921875 12.30078125 C79.56440559 21.51286671 80.94282 33.13526768 80.77709961 45.44482422 C80.43031688 57.56814376 79.27872007 67.65515539 70.86328125 76.9765625 C56.62904467 90.25081568 33.43115763 89.8286499 15.26196289 89.68945312 C11.93366874 89.66796923 8.60752696 89.68939445 5.27929688 89.71484375 C-12.05163704 89.73767183 -31.63279533 89.0065033 -45.6484375 77.390625 C-55.70967102 67.03284986 -55.90603408 52.4938138 -55.71484375 38.9140625 C-55.40342947 29.20831753 -53.17180745 20.46623876 -46.50390625 13.16796875 C-40.77217298 8.16732391 -34.85977052 4.99720484 -27.50390625 3.16796875 C-26.76269531 2.97589844 -26.02148438 2.78382812 -25.2578125 2.5859375 C-16.90815943 0.57449595 -8.56745218 0.01159785 0 0 Z " fill="#FDFCFD" transform="translate(87.50390625,53.83203125)"/>
<path d="M0 0 C6.01650659 -0.35391215 8.98319416 0.57432195 13.61352539 4.29736328 C16.40737113 7.72829833 15.46746162 12.64224078 15.4375 16.875 C15.4674707 18.36580078 15.4674707 18.36580078 15.49804688 19.88671875 C15.49501397 24.41788422 15.48657699 27.19869662 13.09765625 31.1328125 C9.01995909 34.76249452 5.22091705 34.3847526 -0.0703125 34.359375 C-3 34 -3 34 -6.1875 31.625 C-8.57029745 28.17405196 -9.12379268 26.55924385 -9.09765625 22.4296875 C-9.09443359 21.53378906 -9.09121094 20.63789062 -9.08789062 19.71484375 C-9.07951172 18.77769531 -9.07113281 17.84054688 -9.0625 16.875 C-9.05798828 15.93011719 -9.05347656 14.98523438 -9.04882812 14.01171875 C-9.03702357 11.67441613 -9.02055759 9.33723939 -9 7 C-5.00095031 7 -3.19799578 8.72586967 0 11 C0 7.37 0 3.74 0 0 Z " fill="#6F64E7" transform="translate(62,82)"/>
<path d="M0 0 C4.98469052 -0.29321709 8.04820644 -0.18338925 12 3 C15.66619141 7.5783115 15.45220515 11.8983375 15.375 17.5 C15.38660156 18.34175781 15.39820313 19.18351562 15.41015625 20.05078125 C15.3875599 24.83367433 15.15052084 28.15429382 12 32 C7.3413446 35.10577027 2.45635205 34.61853384 -3 34 C-6.07365786 32.19196596 -7.43019732 31.13960536 -9 28 C-9.08400529 26.40552536 -9.10727467 24.80759455 -9.09765625 23.2109375 C-9.09443359 22.26992187 -9.09121094 21.32890625 -9.08789062 20.359375 C-9.07951172 19.37453125 -9.07113281 18.3896875 -9.0625 17.375 C-9.05798828 16.38242188 -9.05347656 15.38984375 -9.04882812 14.3671875 C-9.03702145 11.9113984 -9.020554 9.45572896 -9 7 C-5.89656201 8.20689255 -2.98806107 9.50596946 0 11 C0 7.37 0 3.74 0 0 Z " fill="#7065E5" transform="translate(132,82)"/>
<path d="M0 0 C1.20527344 -0.01675781 2.41054687 -0.03351562 3.65234375 -0.05078125 C7.57959493 0.36758571 10.24966345 1.49966345 13.0625 4.3125 C13.57268906 11.52079618 12.77068245 18.76954523 12.0625 25.9375 C11.96710938 26.94167969 11.87171875 27.94585937 11.7734375 28.98046875 C11.54063335 31.42491236 11.3035936 33.8688625 11.0625 36.3125 C10.7325 36.3125 10.4025 36.3125 10.0625 36.3125 C10.03304969 33.00001922 10.01555199 29.68757289 10 26.375 C9.99162109 25.44880859 9.98324219 24.52261719 9.97460938 23.56835938 C9.95412214 17.72949697 10.30820213 12.10336947 11.0625 6.3125 C10.0725 5.9825 9.0825 5.6525 8.0625 5.3125 C8.0625 4.6525 8.0625 3.9925 8.0625 3.3125 C7.4025 3.3125 6.7425 3.3125 6.0625 3.3125 C5.7325 3.9725 5.4025 4.6325 5.0625 5.3125 C4.4025 5.3125 3.7425 5.3125 3.0625 5.3125 C3.0625 4.6525 3.0625 3.9925 3.0625 3.3125 C-1.1359359 2.96263034 -2.71219987 3.71145151 -5.9375 6.3125 C-6.9275 6.43625 -6.9275 6.43625 -7.9375 6.5625 C-10.86805698 7.66145887 -11.48052603 9.87457491 -12.875 12.52734375 C-14.45670177 15.18483532 -16.34607263 16.66915581 -18.9375 18.3125 C-20.59299531 18.69749891 -22.2597433 19.04043135 -23.9375 19.3125 C-24.5975 19.9725 -25.2575 20.6325 -25.9375 21.3125 C-28.07421875 21.2890625 -28.07421875 21.2890625 -30.625 20.9375 C-37.94342145 19.77406928 -37.94342145 19.77406928 -44.9375 21.3125 C-46.8828125 20.75390625 -46.8828125 20.75390625 -49.0625 19.875 C-50.14917969 19.44380859 -50.14917969 19.44380859 -51.2578125 19.00390625 C-51.81210938 18.77574219 -52.36640625 18.54757813 -52.9375 18.3125 C-53.2675 18.9725 -53.5975 19.6325 -53.9375 20.3125 C-53.9375 19.6525 -53.9375 18.9925 -53.9375 18.3125 C-54.47375 18.498125 -55.01 18.68375 -55.5625 18.875 C-58.56564796 19.42821147 -60.95444161 18.88372395 -63.9375 18.3125 C-64.9275 18.3125 -65.9175 18.3125 -66.9375 18.3125 C-66.9375 19.3025 -66.9375 20.2925 -66.9375 21.3125 C-67.9275 21.3125 -68.9175 21.3125 -69.9375 21.3125 C-70.4325 20.3225 -70.4325 20.3225 -70.9375 19.3125 C-74.98508633 18.38158831 -78.89369737 18.18424034 -83.03515625 18.1796875 C-84.73188477 18.17775391 -84.73188477 18.17775391 -86.46289062 18.17578125 C-87.63013672 18.17964844 -88.79738281 18.18351562 -90 18.1875 C-91.17111328 18.18363281 -92.34222656 18.17976563 -93.54882812 18.17578125 C-94.67869141 18.17707031 -95.80855469 18.17835937 -96.97265625 18.1796875 C-98.50998413 18.18137939 -98.50998413 18.18137939 -100.07836914 18.18310547 C-102.81532863 18.30697094 -105.2586783 18.76942554 -107.9375 19.3125 C-110.04591414 19.45627494 -112.15740191 19.55825868 -114.26953125 19.62890625 C-115.48060547 19.67080078 -116.69167969 19.71269531 -117.93945312 19.75585938 C-119.19693359 19.79517578 -120.45441406 19.83449219 -121.75 19.875 C-122.99587891 19.91818359 -124.24175781 19.96136719 -125.52539062 20.00585938 C-131.66596434 20.2110881 -137.79355863 20.36646184 -143.9375 20.3125 C-144.5975 18.6625 -145.2575 17.0125 -145.9375 15.3125 C-146.9275 15.6425 -147.9175 15.9725 -148.9375 16.3125 C-148.6075 14.3325 -148.2775 12.3525 -147.9375 10.3125 C-147.25042969 10.73402344 -146.56335938 11.15554687 -145.85546875 11.58984375 C-144.95441406 12.13769531 -144.05335938 12.68554688 -143.125 13.25 C-142.23167969 13.79527344 -141.33835937 14.34054688 -140.41796875 14.90234375 C-131.92507067 19.73058974 -120.40875559 17.1805505 -111.0625 16.3125 C-90.40512593 14.590177 -69.79803568 14.75392354 -49.15454102 16.60058594 C-32.22750499 18.51762443 -32.22750499 18.51762443 -16.9375 12.3125 C-14.94548986 9.97385236 -13.7946501 8.00195674 -12.5 5.1875 C-9.59232007 -0.16263107 -5.7675797 0.0184661 0 0 Z " fill="#9E80E6" transform="translate(180.9375,25.6875)"/>
<path d="M0 0 C0.33 0 0.66 0 1 0 C1.17299155 14.58895406 1.17299155 14.58895406 0.375 20.25 C-0.40821104 24.07531781 -0.40821104 24.07531781 2 27 C2.66 26.01 3.32 25.02 4 24 C4 24.66 4 25.32 4 26 C5.32 26.33 6.64 26.66 8 27 C7.67 27.33 7.34 27.66 7 28 C9.97 28.33 12.94 28.66 16 29 C16.33 26.69 16.66 24.38 17 22 C18.32 22.66 19.64 23.32 21 24 C23.15305957 20.14243493 24.39253254 17.44870215 24 13 C30.91383514 10.86879354 37.29881576 10.76301986 44.5 10.875 C45.60859375 10.88402344 46.7171875 10.89304688 47.859375 10.90234375 C50.57314592 10.92573833 53.28645545 10.95851825 56 11 C56 11.66 56 12.32 56 13 C54.80503906 13.02578125 53.61007813 13.0515625 52.37890625 13.078125 C38.29848234 13.28390466 38.29848234 13.28390466 26.625 20.375 C24.91506596 23.04103388 24.91506596 23.04103388 23.4375 26.1875 C22 29 22 29 19 31 C16.3253355 31.24840297 13.79922387 31.37018158 11.125 31.375 C10.41730469 31.39949219 9.70960937 31.42398438 8.98046875 31.44921875 C5.41867918 31.46911702 3.14658419 31.08145701 0.01953125 29.34375 C-2.53357498 26.38076405 -2.58711267 24.99562465 -2.4375 21.125 C-2.39496094 19.98933594 -2.35242188 18.85367188 -2.30859375 17.68359375 C-1.81104454 11.74449366 -0.98669852 5.87614207 0 0 Z " fill="#5861CC" transform="translate(8,142)"/>
<path d="M0 0 C0 0.66 0 1.32 0 2 C0.66 1.34 1.32 0.68 2 0 C3.32 0.66 4.64 1.32 6 2 C5.95875 2.845625 5.9175 3.69125 5.875 4.5625 C6.01535028 8.42213269 6.82780164 11.33688013 8 15 C8.804375 15.12375 9.60875 15.2475 10.4375 15.375 C11.283125 15.58125 12.12875 15.7875 13 16 C13.495 16.99 13.495 16.99 14 18 C16.58605332 18.4683265 16.58605332 18.4683265 19.5625 18.625 C21.08037109 18.73714844 21.08037109 18.73714844 22.62890625 18.8515625 C23.80259766 18.92503906 23.80259766 18.92503906 25 19 C25 18.34 25 17.68 25 17 C26.32 17.33 27.64 17.66 29 18 C29.185625 17.13375 29.185625 17.13375 29.375 16.25 C30.00648824 13.97664233 30.88858191 12.0746471 32 10 C32.3125 13.25 32.3125 13.25 32 17 C29.13713727 20.11758553 27.40236672 20.94022216 23.1875 21.56640625 C21.7918058 21.58615664 20.39566232 21.58438769 19 21.5625 C18.30132812 21.58634766 17.60265625 21.61019531 16.8828125 21.63476562 C12.94147894 21.62361091 11.18109032 21.1458918 8.0859375 18.65234375 C6 16 6 16 4.625 13 C2.35408708 8.80754538 -1.14170018 5.87892819 -5.76098633 4.45849609 C-8.40889781 3.91626757 -10.93926945 3.78417614 -13.640625 3.68359375 C-14.71054688 3.64169922 -15.78046875 3.59980469 -16.8828125 3.55664062 C-17.99398437 3.51732422 -19.10515625 3.47800781 -20.25 3.4375 C-21.93996094 3.37272461 -21.93996094 3.37272461 -23.6640625 3.30664062 C-26.44258954 3.20067985 -29.22120391 3.09860858 -32 3 C-32 2.67 -32 2.34 -32 2 C-21.55975633 -0.31788992 -10.64213144 -0.15910163 0 0 Z " fill="#525ADE" transform="translate(162,152)"/>
<path d="M0 0 C1.2890625 0.00128906 2.578125 0.00257812 3.90625 0.00390625 C7.65048956 0.45565689 9.58067362 1.08477116 12.5 3.4375 C13.8125 7.125 13.8125 7.125 14.5 10.4375 C13.84 10.4375 13.18 10.4375 12.5 10.4375 C12.17 9.1175 11.84 7.7975 11.5 6.4375 C10.901875 6.293125 10.30375 6.14875 9.6875 6 C7.93849596 5.5502561 6.21322977 5.00857659 4.5 4.4375 C4.5 3.7775 4.5 3.1175 4.5 2.4375 C2.19 2.7675 -0.12 3.0975 -2.5 3.4375 C-2.5 4.0975 -2.5 4.7575 -2.5 5.4375 C-4.2015625 5.6540625 -4.2015625 5.6540625 -5.9375 5.875 C-9.30777201 6.04921478 -9.30777201 6.04921478 -10.5 7.4375 C-10.28552319 8.97458382 -10.06294233 10.51070019 -9.81640625 12.04296875 C-9.42514781 15.00397396 -9.24817716 17.95653757 -9.0625 20.9375 C-8.73721435 25.97676127 -8.1548721 30.886959 -7.375 35.875 C-6.273761 43.58367303 -6.69035734 50.72401248 -7.5 58.4375 C-7.83 58.4375 -8.16 58.4375 -8.5 58.4375 C-8.57516846 57.39746826 -8.57516846 57.39746826 -8.65185547 56.33642578 C-9.8779537 39.36286416 -9.8779537 39.36286416 -11.625 22.4375 C-12.71875557 12.87489022 -12.71875557 12.87489022 -12.9375 8.5625 C-12.97746094 7.84320313 -13.01742188 7.12390625 -13.05859375 6.3828125 C-11.28444111 0.20429492 -5.49202193 -0.08238033 0 0 Z " fill="#977DE1" transform="translate(18.5,25.5625)"/>
<path d="M0 0 C1.03060547 0.63228516 1.03060547 0.63228516 2.08203125 1.27734375 C2.98308594 1.82519531 3.88414063 2.37304688 4.8125 2.9375 C5.70582031 3.48277344 6.59914063 4.02804688 7.51953125 4.58984375 C14.67699703 8.65889122 23.43862512 7.16857325 31.3671875 6.5 C38.80833367 5.95069651 46.20416157 5.84750464 53.66088867 5.86962891 C55.82803191 5.87503877 57.99497194 5.8696172 60.16210938 5.86328125 C67.17850773 5.86027727 74.04542442 6.0187273 81 7 C81.495 8.485 81.495 8.485 82 10 C80.68 10.33 79.36 10.66 78 11 C77.505 10.01 77.505 10.01 77 9 C72.95241367 8.06908831 69.04380263 7.87174034 64.90234375 7.8671875 C63.20561523 7.86525391 63.20561523 7.86525391 61.47460938 7.86328125 C60.30736328 7.86714844 59.14011719 7.87101562 57.9375 7.875 C56.76638672 7.87113281 55.59527344 7.86726563 54.38867188 7.86328125 C53.25880859 7.86457031 52.12894531 7.86585937 50.96484375 7.8671875 C49.42751587 7.86887939 49.42751587 7.86887939 47.85913086 7.87060547 C45.12217137 7.99447094 42.6788217 8.45692554 40 9 C37.89158586 9.14377494 35.78009809 9.24575868 33.66796875 9.31640625 C31.85135742 9.37924805 31.85135742 9.37924805 29.99804688 9.44335938 C28.11182617 9.50233398 28.11182617 9.50233398 26.1875 9.5625 C24.31868164 9.62727539 24.31868164 9.62727539 22.41210938 9.69335938 C16.27153566 9.8985881 10.14394137 10.05396184 4 10 C3.34 8.35 2.68 6.7 2 5 C1.01 5.33 0.02 5.66 -1 6 C-0.67 4.02 -0.34 2.04 0 0 Z " fill="#9373E9" transform="translate(33,36)"/>
<path d="M0 0 C2.10242243 0.239323 4.20450815 0.48200125 6.30471802 0.74002075 C11.11347974 1.20386026 15.91999259 1.08036038 20.74609375 1.02734375 C22.98632667 1.01471379 25.22656112 1.00235167 27.46679688 0.99023438 C30.97164741 0.9652897 34.47641761 0.93713268 37.98120117 0.90405273 C41.38200415 0.8740032 44.78270114 0.85613845 48.18359375 0.83984375 C49.23872665 0.82638412 50.29385956 0.8129245 51.38096619 0.79905701 C52.3528035 0.79567825 53.32464081 0.7922995 54.32592773 0.78881836 C55.1825853 0.78136093 56.03924286 0.7739035 56.92185974 0.76622009 C59 1 59 1 61 3 C62.94765004 3.23107712 64.89597521 3.45823442 66.84765625 3.65234375 C70.13368841 4.18311845 72.97212843 5.6542793 76 7 C77.98821313 7.39764263 79.98732362 7.75455166 82 8 C82 8.66 82 9.32 82 10 C82.66 10 83.32 10 84 10 C84 10.66 84 11.32 84 12 C84.99 12.33 85.98 12.66 87 13 C86.67 13.66 86.34 14.32 86 15 C85.48953125 14.68546875 84.9790625 14.3709375 84.453125 14.046875 C65.37991497 2.81938257 44.40794309 3.7135111 23 3.875 C20.66406636 3.8850547 18.3281285 3.89417612 15.9921875 3.90234375 C10.32803149 3.9241487 4.66403604 3.95742705 -1 4 C-1 1 -1 1 0 0 Z " fill="#957DE2" transform="translate(71,51)"/>
<path d="M0 0 C0.33 0 0.66 0 1 0 C1 23.76 1 47.52 1 72 C0.34 72 -0.32 72 -1 72 C-3.08282949 57.42019358 -1.9645983 42.32750322 -1.62768555 27.64111328 C-1.56165777 24.71264524 -1.50247662 21.7840835 -1.44335938 18.85546875 C-1.40145828 16.98176147 -1.35915581 15.10806311 -1.31640625 13.234375 C-1.29969376 12.3646405 -1.28298126 11.49490601 -1.26576233 10.59881592 C-1.24581711 9.78986877 -1.22587189 8.98092163 -1.20532227 8.14746094 C-1.18977798 7.44071228 -1.1742337 6.73396362 -1.15821838 6.00579834 C-0.99304432 3.91182009 -0.56523253 2.01973215 0 0 Z " fill="#7268D4" transform="translate(190,64)"/>
<path d="M0 0 C4.98469052 -0.29321709 8.04820644 -0.18338925 12 3 C15.7790677 7.64000638 15.35289067 12.12560526 15.1875 17.8125 C15.16719727 19.13797852 15.16719727 19.13797852 15.14648438 20.49023438 C15.11129217 22.66042023 15.05748985 24.83029033 15 27 C14.67 27 14.34 27 14 27 C13.34 20.4 12.68 13.8 12 7 C10.35 6.67 8.7 6.34 7 6 C7 5.34 7 4.68 7 4 C4.57869669 5.21065165 4.15341778 6.21873407 2.875 8.5625 C1.946875 10.2640625 1.946875 10.2640625 1 12 C1.66 12 2.32 12 3 12 C2.67 12.66 2.34 13.32 2 14 C-0.31 13.34 -2.62 12.68 -5 12 C-4.34 11.34 -3.68 10.68 -3 10 C-2.01 10.33 -1.02 10.66 0 11 C0 7.37 0 3.74 0 0 Z " fill="#7E6FDD" transform="translate(132,82)"/>
<path d="M0 0 C0.89203125 0.00902344 1.7840625 0.01804688 2.703125 0.02734375 C3.37859375 0.03894531 4.0540625 0.05054688 4.75 0.0625 C1.72349917 1.71717569 -1.15419689 2.62494781 -4.5 3.4375 C-12.98621561 5.69747753 -21.18559972 9.13757098 -26 16.875 C-26.4125 17.596875 -26.825 18.31875 -27.25 19.0625 C-27.91 19.0625 -28.57 19.0625 -29.25 19.0625 C-29.07387022 13.69054171 -29.07387022 13.69054171 -28.25 11.0625 C-25.25 9.25 -25.25 9.25 -22.25 8.0625 C-21.92 7.0725 -21.59 6.0825 -21.25 5.0625 C-19.6 4.7325 -17.95 4.4025 -16.25 4.0625 C-15.92 3.0725 -15.59 2.0825 -15.25 1.0625 C-14.92 1.7225 -14.59 2.3825 -14.25 3.0625 C-13.5075 2.753125 -12.765 2.44375 -12 2.125 C-7.84199653 0.51849866 -4.46875553 -0.05879941 0 0 Z " fill="#8F76E4" transform="translate(64.25,54.9375)"/>
<path d="M0 0 C0.33 0 0.66 0 1 0 C1.17299155 14.58895406 1.17299155 14.58895406 0.375 20.25 C-0.40821104 24.07531781 -0.40821104 24.07531781 2 27 C2.66 26.01 3.32 25.02 4 24 C4 24.66 4 25.32 4 26 C5.32 26.33 6.64 26.66 8 27 C7.67 27.33 7.34 27.66 7 28 C10.96 28.33 14.92 28.66 19 29 C19 28.34 19 27.68 19 27 C19.66 27 20.32 27 21 27 C20.34 28.32 19.68 29.64 19 31 C16.43635517 31.10845031 13.87733721 31.18749744 11.3125 31.25 C10.59126953 31.28351563 9.87003906 31.31703125 9.12695312 31.3515625 C5.37313032 31.42012547 3.36717244 31.20228038 0.0078125 29.3515625 C-2.52766858 26.38199127 -2.58690156 24.99016306 -2.4375 21.125 C-2.39496094 19.98933594 -2.35242188 18.85367188 -2.30859375 17.68359375 C-1.81104454 11.74449366 -0.98669852 5.87614207 0 0 Z " fill="#616AD0" transform="translate(8,142)"/>
<path d="M0 0 C-0.66 2.97 -1.32 5.94 -2 9 C-4.33294775 9.04241723 -6.66702567 9.04092937 -9 9 C-9.33 8.67 -9.66 8.34 -10 8 C-12.69654854 7.92680379 -15.36691458 7.90757463 -18.0625 7.9375 C-19.20041992 7.94426758 -19.20041992 7.94426758 -20.36132812 7.95117188 C-22.24091871 7.9629932 -24.12046899 7.98092922 -26 8 C-22.36032214 5.57354809 -18.7670305 4.90374459 -14.5625 4 C-9.99247854 3.0127211 -4.40361178 0 0 0 Z " fill="#6265D9" transform="translate(153,135)"/>
<path d="M0 0 C0.33 0 0.66 0 1 0 C1.3125 3.25 1.3125 3.25 1 7 C-1.86286273 10.11758553 -3.59763328 10.94022216 -7.8125 11.56640625 C-9.2081942 11.58615664 -10.60433768 11.58438769 -12 11.5625 C-13.04800781 11.59827148 -13.04800781 11.59827148 -14.1171875 11.63476562 C-18.09662801 11.62350306 -19.82969245 11.13805062 -22.94921875 8.609375 C-24.81076 6.24078537 -25.67266729 4.94599437 -26 2 C-25.01 2.33 -24.02 2.66 -23 3 C-23 3.66 -23 4.32 -23 5 C-21.7934375 5.185625 -21.7934375 5.185625 -20.5625 5.375 C-19.2940625 5.684375 -19.2940625 5.684375 -18 6 C-17.67 6.66 -17.34 7.32 -17 8 C-14.41394668 8.4683265 -14.41394668 8.4683265 -11.4375 8.625 C-10.42558594 8.69976562 -9.41367188 8.77453125 -8.37109375 8.8515625 C-7.19740234 8.92503906 -7.19740234 8.92503906 -6 9 C-6 8.34 -6 7.68 -6 7 C-4.68 7.33 -3.36 7.66 -2 8 C-1.855625 7.4225 -1.71125 6.845 -1.5625 6.25 C-1.04166667 4.16666667 -0.52083333 2.08333333 0 0 Z " fill="#616CD0" transform="translate(193,162)"/>
<path d="M0 0 C0.66 0.33 1.32 0.66 2 1 C2.02887512 4.64581687 2.04675585 8.29160463 2.0625 11.9375 C2.07087891 12.97841797 2.07925781 14.01933594 2.08789062 15.09179688 C2.09111328 16.08115234 2.09433594 17.07050781 2.09765625 18.08984375 C2.10289307 19.00628662 2.10812988 19.92272949 2.11352539 20.86694336 C2 23 2 23 1 24 C0.86659985 25.7559663 0.79656524 27.51683432 0.75390625 29.27734375 C0.72103516 30.34791016 0.68816406 31.41847656 0.65429688 32.52148438 C0.59320659 34.79482297 0.53590136 37.0682665 0.48242188 39.34179688 C0.44826172 40.41365234 0.41410156 41.48550781 0.37890625 42.58984375 C0.3538501 43.57847412 0.32879395 44.56710449 0.30297852 45.58569336 C0 48 0 48 -2 50 C-2.17549462 39.19367523 -1.62175761 28.47123888 -1 17.6875 C-0.90331544 15.96421121 -0.80695907 14.24090398 -0.7109375 12.51757812 C-0.47773351 8.34483021 -0.2401172 4.17235557 0 0 Z " fill="#6E67D5" transform="translate(11,90)"/>
<path d="M0 0 C19.12852337 -0.26107171 37.93108025 0.25166695 57 2 C57 2.33 57 2.66 57 3 C52.71 3 48.42 3 44 3 C43.67 3.66 43.34 4.32 43 5 C43 4.34 43 3.68 43 3 C42.46375 3.185625 41.9275 3.37125 41.375 3.5625 C38.35686783 4.11847171 36.03211941 3.50919566 33 3 C30.3961656 2.79149451 27.80237806 2.61045346 25.1953125 2.46484375 C24.4713327 2.42186661 23.74735291 2.37888947 23.00143433 2.33460999 C20.70945385 2.19923852 18.41724546 2.06829963 16.125 1.9375 C14.56248277 1.84599687 12.99998254 1.75420293 11.4375 1.66210938 C7.62518838 1.43804254 3.81266611 1.21794821 0 1 C0 0.67 0 0.34 0 0 Z " fill="#9E84E1" transform="translate(84,41)"/>
<path d="M0 0 C0.66 0.33 1.32 0.66 2 1 C5.6081916 1.03095262 9.20549459 0.93223631 12.8125 0.83984375 C16 1 16 1 18 3 C-0.15 3 -18.3 3 -37 3 C-37.33 2.34 -37.66 1.68 -38 1 C-36.88439697 1.00523682 -35.76879395 1.01047363 -34.61938477 1.01586914 C-30.49520667 1.03391775 -26.37103209 1.04543149 -22.24682617 1.05493164 C-20.45905979 1.05997218 -18.67129755 1.06680454 -16.88354492 1.07543945 C-14.31948832 1.0875173 -11.75548603 1.09323094 -9.19140625 1.09765625 C-7.98515343 1.10539818 -7.98515343 1.10539818 -6.75453186 1.11329651 C-4.83598285 1.11349215 -2.91754632 1.06201983 -1 1 C-0.67 0.67 -0.34 0.34 0 0 Z " fill="#525BD1" transform="translate(105,153)"/>
<path d="M0 0 C0.515625 0.70125 1.03125 1.4025 1.5625 2.125 C7.06428881 8.61428937 12.34057989 11.88093143 20.328125 14.921875 C23 16 23 16 26 18 C22.625 18.625 22.625 18.625 19 19 C18.34 18.34 17.68 17.68 17 17 C16.34 17.66 15.68 18.32 15 19 C14.67 18.34 14.34 17.68 14 17 C14.33 16.34 14.66 15.68 15 15 C11.7 14.34 8.4 13.68 5 13 C4.67 11.68 4.34 10.36 4 9 C2.51546536 6.28911066 1.18841798 4.18841798 -1 2 C-0.67 1.34 -0.34 0.68 0 0 Z " fill="#6566D0" transform="translate(36,123)"/>
<path d="M0 0 C2.13739635 0.22699306 4.2743527 0.45967759 6.40768433 0.72213745 C10.62084047 1.17373303 14.83246353 1.23528275 19.06640625 1.31640625 C19.98590561 1.33718735 20.90540497 1.35796844 21.85276794 1.37937927 C24.75594469 1.44414557 27.65920262 1.50341637 30.5625 1.5625 C32.54492987 1.60575478 34.52735189 1.64937115 36.50976562 1.69335938 C41.33976307 1.79975085 46.16984119 1.9012179 51 2 C51 2.33 51 2.66 51 3 C33.84 3.33 16.68 3.66 -1 4 C-1 1 -1 1 0 0 Z " fill="#8F77DA" transform="translate(71,51)"/>
<path d="M0 0 C7.42857143 -0.28571429 7.42857143 -0.28571429 11 2 C10.01 2.66 9.02 3.32 8 4 C7.34 4.66 6.68 5.32 6 6 C6 6.66 6 7.32 6 8 C5.34 8 4.68 8 4 8 C4 8.99 4 9.98 4 11 C2.68 11 1.36 11 0 11 C0 7.37 0 3.74 0 0 Z " fill="#806FE4" transform="translate(62,82)"/>
<path d="M0 0 C0.66 0 1.32 0 2 0 C1.7834375 0.79019531 1.566875 1.58039063 1.34375 2.39453125 C-1.95492907 15.75723583 -2.30183095 29.38144773 0.7578125 42.84765625 C0.83773437 43.55792969 0.91765625 44.26820312 1 45 C0.34 45.66 -0.32 46.32 -1 47 C-3.37152951 39.53721069 -3.2971961 32.3459239 -3.25 24.5625 C-3.25773437 23.29083984 -3.26546875 22.01917969 -3.2734375 20.70898438 C-3.23720779 3.23720779 -3.23720779 3.23720779 0 0 Z " fill="#796DD6" transform="translate(34,74)"/>
<path d="M0 0 C1.97119141 1.18530273 1.97119141 1.18530273 4 3 C4.48583984 5.32836914 4.48583984 5.32836914 4.4609375 8.03515625 C4.45707031 9.00904297 4.45320313 9.98292969 4.44921875 10.98632812 C4.42472656 12.00146484 4.40023437 13.01660156 4.375 14.0625 C4.37371094 15.08150391 4.37242188 16.10050781 4.37109375 17.15039062 C4.28080986 24.71919014 4.28080986 24.71919014 2 27 C2.495 18.09 2.495 18.09 3 9 C2.01 9.33 1.02 9.66 0 10 C-0.99 9.67 -1.98 9.34 -3 9 C-3 7.02 -3 5.04 -3 3 C-2.34 3 -1.68 3 -1 3 C-1 4.32 -1 5.64 -1 7 C-0.01 7 0.98 7 2 7 C1.42655063 4.13275314 1.1385485 3.1385485 -1 1 C-0.67 0.67 -0.34 0.34 0 0 Z " fill="#786CD8" transform="translate(73,85)"/>
<path d="M0 0 C2.39652528 -0.08139142 4.79025436 -0.14067009 7.1875 -0.1875 C7.86103516 -0.21263672 8.53457031 -0.23777344 9.22851562 -0.26367188 C13.68396873 -0.32887363 16.52616961 0.14834819 20 3 C21.3125 6.6875 21.3125 6.6875 22 10 C21.34 10 20.68 10 20 10 C19.67 8.68 19.34 7.36 19 6 C18.401875 5.855625 17.80375 5.71125 17.1875 5.5625 C15.43849596 5.1127561 13.71322977 4.57107659 12 4 C12 3.34 12 2.68 12 2 C8.04 1.67 4.08 1.34 0 1 C0 0.67 0 0.34 0 0 Z " fill="#AB8BEE" transform="translate(11,26)"/>
<path d="M0 0 C-3.31868591 1.02245821 -6.18283589 1.04443871 -9.640625 0.87890625 C-11.24550781 0.80639648 -11.24550781 0.80639648 -12.8828125 0.73242188 C-14.54957031 0.64831055 -14.54957031 0.64831055 -16.25 0.5625 C-17.93996094 0.48418945 -17.93996094 0.48418945 -19.6640625 0.40429688 C-22.44299972 0.27477014 -25.22156424 0.13980947 -28 0 C-28 -0.33 -28 -0.66 -28 -1 C-18.21743696 -3.13304006 -9.3193149 -4.01694608 0 0 Z " fill="#535BCE" transform="translate(158,155)"/>
<path d="M0 0 C0.99 0.33 1.98 0.66 3 1 C2.75 2.875 2.75 2.875 2 5 C0.1875 6 0.1875 6 -2 7 C-4.27144074 8.85432087 -4.27144074 8.85432087 -6 11 C-6 11.99 -6 12.98 -6 14 C-7.32 13.67 -8.64 13.34 -10 13 C-8.60484422 10.01517153 -6.97667625 7.44642111 -5 4.8125 C-4.484375 4.11769531 -3.96875 3.42289062 -3.4375 2.70703125 C-2 1 -2 1 0 0 Z " fill="#6363D3" transform="translate(165,122)"/>
<path d="M0 0 C0.66 0 1.32 0 2 0 C3.98759945 4.14369781 4.23422068 7.47907025 4.1953125 12.05078125 C4.1924826 12.70958786 4.18965271 13.36839447 4.18673706 14.04716492 C4.17560924 16.13580062 4.15051948 18.22399556 4.125 20.3125 C4.11496059 21.73501982 4.10583642 23.1575464 4.09765625 24.58007812 C4.07569447 28.05352681 4.04121646 31.52672033 4 35 C2 33 2 33 1.8046875 30.92797852 C1.82789063 30.08678467 1.85109375 29.24559082 1.875 28.37890625 C1.89175781 27.44771973 1.90851563 26.5165332 1.92578125 25.55712891 C1.95027344 24.56890137 1.97476563 23.58067383 2 22.5625 C2.11003624 14.83370488 2.01577312 7.52315325 0 0 Z " fill="#7C6ED6" transform="translate(165,77)"/>
<path d="M0 0 C1.32 1.32 2.64 2.64 4 4 C3.01 4.495 3.01 4.495 2 5 C1.67 10.61 1.34 16.22 1 22 C0.34 21.67 -0.32 21.34 -1 21 C-1.02888146 17.68751813 -1.04675799 14.37506833 -1.0625 11.0625 C-1.07087891 10.11697266 -1.07925781 9.17144531 -1.08789062 8.19726562 C-1.09111328 7.29814453 -1.09433594 6.39902344 -1.09765625 5.47265625 C-1.10289307 4.64000244 -1.10812988 3.80734863 -1.11352539 2.94946289 C-1 1 -1 1 0 0 Z " fill="#8077D2" transform="translate(54,88)"/>
<path d="M0 0 C4.94281487 8.77601825 2.84453107 20.37234582 2 30 C1.67 30 1.34 30 1 30 C-0.09945892 19.98707052 -0.10055982 10.05598201 0 0 Z " fill="#8A74E0" transform="translate(9,54)"/>
<path d="M0 0 C1.51400391 0.01740234 1.51400391 0.01740234 3.05859375 0.03515625 C4.07050781 0.04417969 5.08242188 0.05320312 6.125 0.0625 C7.29869141 0.07990234 7.29869141 0.07990234 8.49609375 0.09765625 C8.49609375 0.75765625 8.49609375 1.41765625 8.49609375 2.09765625 C7.89796875 2.24203125 7.29984375 2.38640625 6.68359375 2.53515625 C4.93458971 2.98490015 3.20932352 3.52657966 1.49609375 4.09765625 C-0.50390625 4.76432292 -2.50390625 5.43098958 -4.50390625 6.09765625 C-3.43349052 0.13391149 -3.43349052 0.13391149 0 0 Z " fill="#9B77ED" transform="translate(11.50390625,26.90234375)"/>
<path d="M0 0 C-1.74268207 3.96064107 -4.14674729 7.74436549 -7 11 C-7.66 11 -8.32 11 -9 11 C-8.82506131 5.66436996 -8.82506131 5.66436996 -8 3 C-5.23782659 1.1193713 -3.37036422 0 0 0 Z " fill="#856FE3" transform="translate(44,63)"/>
<path d="M0 0 C-1.25 1.5 -1.25 1.5 -3 3 C-4.32 3 -5.64 3 -7 3 C-8.56621094 3.03480469 -8.56621094 3.03480469 -10.1640625 3.0703125 C-11.30617188 3.08835938 -12.44828125 3.10640625 -13.625 3.125 C-14.77226563 3.14820313 -15.91953125 3.17140625 -17.1015625 3.1953125 C-20 3 -20 3 -22 1 C-14.65623924 0.42240084 -7.36901413 -0.14738028 0 0 Z " fill="#957BE3" transform="translate(80,42)"/>
<path d="M0 0 C8.25 0 16.5 0 25 0 C24.01 1.485 24.01 1.485 23 3 C22.35933594 2.9278125 21.71867187 2.855625 21.05859375 2.78125 C12.34392108 1.38850425 12.34392108 1.38850425 4 3 C2.68 2.01 1.36 1.02 0 0 Z " fill="#9071E9" transform="translate(132,44)"/>
<path d="M0 0 C2.05078125 0.03255208 4.1015625 0.06510417 6.15234375 0.09765625 C5.82234375 1.08765625 5.49234375 2.07765625 5.15234375 3.09765625 C3.15663052 3.77704799 1.15639602 4.44327184 -0.84765625 5.09765625 C-1.50765625 6.08765625 -2.16765625 7.07765625 -2.84765625 8.09765625 C-2.89007348 5.7647085 -2.88858562 3.43063058 -2.84765625 1.09765625 C-1.84765625 0.09765625 -1.84765625 0.09765625 0 0 Z " fill="#9D76F0" transform="translate(171.84765625,27.90234375)"/>
<path d="M0 0 C0.33 0.99 0.66 1.98 1 3 C0.01 4.485 0.01 4.485 -1 6 C-1.66 6 -2.32 6 -3 6 C-3 5.34 -3 4.68 -3 4 C-3.94875 4.04125 -4.8975 4.0825 -5.875 4.125 C-9 4 -9 4 -11 2 C-10.071875 1.855625 -9.14375 1.71125 -8.1875 1.5625 C-5.38271427 1.06753781 -2.83105141 0 0 0 Z " fill="#8B6CF0" transform="translate(156,55)"/>
<path d="M0 0 C2.475 0.99 2.475 0.99 5 2 C4.979375 2.9075 4.95875 3.815 4.9375 4.75 C4.9889755 7.42672588 5.2215017 9.46988052 6 12 C5.34 12 4.68 12 4 12 C3.731875 10.865625 3.46375 9.73125 3.1875 8.5625 C2.795625 7.386875 2.40375 6.21125 2 5 C1.01 4.67 0.02 4.34 -1 4 C-0.67 2.68 -0.34 1.36 0 0 Z " fill="#4D58DC" transform="translate(163,152)"/>
<path d="M0 0 C0 0.33 0 0.66 0 1 C-5.66642551 2.22517308 -11.23708518 2.09228867 -17 2 C-11.40569614 -1.7295359 -6.34337537 -0.98431687 0 0 Z " fill="#676AD6" transform="translate(144,141)"/>
<path d="M0 0 C4.09789669 0.37943488 6.53958935 0.69305957 10 3 C6.625 3.625 6.625 3.625 3 4 C2.34 3.34 1.68 2.68 1 2 C0.34 2.66 -0.32 3.32 -1 4 C-1 1 -1 1 0 0 Z " fill="#5E61D5" transform="translate(52,138)"/>
<path d="M0 0 C1.65 0.99 3.3 1.98 5 3 C4.67 3.66 4.34 4.32 4 5 C3.34 5 2.68 5 2 5 C2 5.66 2 6.32 2 7 C1.01 7 0.02 7 -1 7 C-0.67 4.69 -0.34 2.38 0 0 Z " fill="#4656E0" transform="translate(25,164)"/>
<path d="M0 0 C0 1.32 0 2.64 0 4 C-2.31 4 -4.62 4 -7 4 C-7 3.01 -7 2.02 -7 1 C-4.53721199 -0.231394 -2.7204945 -0.07159196 0 0 Z " fill="#4D59E1" transform="translate(39,154)"/>
<path d="M0 0 C0.80824219 0.28746094 1.61648437 0.57492188 2.44921875 0.87109375 C3.06410156 1.09925781 3.67898437 1.32742187 4.3125 1.5625 C0.37828773 2.71757777 -2.66018577 2.39835767 -6.6875 1.5625 C-7.0175 0.9025 -7.3475 0.2425 -7.6875 -0.4375 C-4.20878379 -1.59707207 -3.34530355 -1.21206651 0 0 Z " fill="#5D66CA" transform="translate(153.6875,153.4375)"/>
<path d="M0 0 C0.33 0 0.66 0 1 0 C1.25 3.3125 1.25 3.3125 1 7 C-0.8125 9 -0.8125 9 -3 10 C-3.99 9.67 -4.98 9.34 -6 9 C-6 8.34 -6 7.68 -6 7 C-4.68 7.33 -3.36 7.66 -2 8 C-1.855625 7.4225 -1.71125 6.845 -1.5625 6.25 C-1.04166667 4.16666667 -0.52083333 2.08333333 0 0 Z " fill="#525ECA" transform="translate(193,162)"/>
<path d="M0 0 C0.99 0.33 1.98 0.66 3 1 C3.6875 3.0625 3.6875 3.0625 4 5 C1.69 5 -0.62 5 -3 5 C-3.33 4.34 -3.66 3.68 -4 3 C-2.35 3 -0.7 3 1 3 C0.67 2.01 0.34 1.02 0 0 Z " fill="#555BDE" transform="translate(147,139)"/>
<path d="M0 0 C0.66 0.33 1.32 0.66 2 1 C1.67 3.31 1.34 5.62 1 8 C-0.32 6.35 -1.64 4.7 -3 3 C-2.01 2.01 -1.02 1.02 0 0 Z " fill="#866FE5" transform="translate(164,68)"/>
<path d="M0 0 C3.3 0 6.6 0 10 0 C10.33 0.99 10.66 1.98 11 3 C9.68 3.33 8.36 3.66 7 4 C6.67 3.34 6.34 2.68 6 2 C2.97065509 1.34227572 2.97065509 1.34227572 0 1 C0 0.67 0 0.34 0 0 Z " fill="#926DF5" transform="translate(104,43)"/>
<path d="M0 0 C1.52519276 0.08937803 3.04681929 0.24537146 4.5625 0.4375 C5.80193359 0.59025391 5.80193359 0.59025391 7.06640625 0.74609375 C7.70449219 0.82988281 8.34257813 0.91367187 9 1 C9 1.33 9 1.66 9 2 C8.0925 2.144375 7.185 2.28875 6.25 2.4375 C3.78523044 2.86409473 1.41152893 3.35074221 -1 4 C-1 1 -1 1 0 0 Z " fill="#8E6DEA" transform="translate(71,51)"/>
<path d="M0 0 C1.65 0 3.3 0 5 0 C5.66 1.98 6.32 3.96 7 6 C5.83054208 5.19152271 4.66449539 4.37810888 3.5 3.5625 C2.8503125 3.11003906 2.200625 2.65757812 1.53125 2.19140625 C1.0259375 1.79824219 0.520625 1.40507812 0 1 C0 0.67 0 0.34 0 0 Z " fill="#5F67CC" transform="translate(160,157)"/>
<path d="M0 0 C0.99 0.33 1.98 0.66 3 1 C2.67 2.32 2.34 3.64 2 5 C0.68 5.33 -0.64 5.66 -2 6 C-1.34 4.02 -0.68 2.04 0 0 Z " fill="#615EDF" transform="translate(165,122)"/>
<path d="M0 0 C0.66 0.33 1.32 0.66 2 1 C1.1875 3.9375 1.1875 3.9375 0 7 C-0.99 7.33 -1.98 7.66 -3 8 C-1.125 1.125 -1.125 1.125 0 0 Z " fill="#ECE5FC" transform="translate(37,73)"/>
</svg>
