<?xml version="1.0" encoding="UTF-8"?>
<svg version="1.1" xmlns="http://www.w3.org/2000/svg" width="200" height="200">
  <path d="M0 0 C66 0 132 0 200 0 C200 66 200 132 200 200 C134 200 68 200 0 200 C0 134 0 68 0 0 Z " fill="#010101" transform="translate(0,0)" />
  <path d="M0 0 C0.66257813 0.00217529 1.32515625 0.00435059 2.0078125 0.0065918 C4.00265976 0.00972078 5.99748934 -0.01447303 7.9921875 -0.0390625 C22.87127686 -0.0465924 22.87127686 -0.0465924 28.96484375 5.04101562 C29.41988281 5.62882812 29.87492187 6.21664062 30.34375 6.82226562 C30.81683594 7.41007812 31.28992188 7.99789062 31.77734375 8.60351562 C34.26578099 12.3921398 34.08232175 16.23129231 34.109375 20.58789062 C34.11507507 21.29951355 34.12077515 22.01113647 34.12664795 22.74432373 C34.13608765 24.25059529 34.14262785 25.7568874 34.14648438 27.26318359 C34.15615659 29.55017939 34.18717413 31.83626317 34.21875 34.12304688 C34.22528408 35.59048949 34.23053296 37.0579385 34.234375 38.52539062 C34.2467218 39.20168518 34.2590686 39.87797974 34.27178955 40.57476807 C34.24292645 46.83070027 32.56858612 51.24434548 28.65625 56.13476562 C22.21417589 61.25914276 14.56210731 60.64256201 6.69140625 60.65820312 C5.52169785 60.66485992 4.35198944 60.67151672 3.14683533 60.67837524 C0.68001878 60.68847305 -1.78682492 60.69319316 -4.25366211 60.69287109 C-8.01527064 60.69724704 -11.7757079 60.73360719 -15.53710938 60.77148438 C-17.94010018 60.77735263 -20.34309652 60.78132196 -22.74609375 60.78320312 C-24.42299538 60.80475967 -24.42299538 60.80475967 -26.1337738 60.82675171 C-32.56901484 60.78932202 -37.80474226 60.24242276 -43.09375 56.32226562 C-48.26159849 49.96183671 -48.27539368 44.54472788 -48.28125 36.69726562 C-48.29349609 35.82585937 -48.30574219 34.95445313 -48.31835938 34.05664062 C-48.32029297 33.22390625 -48.32222656 32.39117187 -48.32421875 31.53320312 C-48.32832764 30.77313965 -48.33243652 30.01307617 -48.33666992 29.22998047 C-48.09375 27.32226562 -48.09375 27.32226562 -46.09375 25.32226562 C-42.90625 25.05664062 -42.90625 25.05664062 -39.09375 25.07226562 C-37.835625 25.06710938 -36.5775 25.06195313 -35.28125 25.05664062 C-32.09375 25.32226562 -32.09375 25.32226562 -30.09375 27.32226562 C-29.77002959 30.53004056 -29.62964498 33.69262937 -29.52734375 36.91210938 C-29.47157048 41.07006211 -29.47157048 41.07006211 -27.09375 44.32226562 C-24.18784288 44.5222956 -21.37931165 44.60201143 -18.47265625 44.58789062 C-17.61695541 44.58980408 -16.76125458 44.59171753 -15.87962341 44.59368896 C-14.06810208 44.5950512 -12.25657099 44.59135205 -10.44506836 44.58300781 C-7.67083789 44.57232182 -4.89725694 44.58289491 -2.12304688 44.59570312 C-0.3645819 44.59438128 1.39388267 44.59181837 3.15234375 44.58789062 C3.98366318 44.59193909 4.8149826 44.59598755 5.67149353 44.60015869 C9.59169331 44.56823345 11.57161173 44.54535781 14.90625 42.32226562 C15.37229974 39.83904303 15.37229974 39.83904303 15.3046875 36.94726562 C15.30855469 35.87992188 15.31242187 34.81257813 15.31640625 33.71289062 C15.30480469 32.59398437 15.29320312 31.47507812 15.28125 30.32226562 C15.29285156 29.20335938 15.30445313 28.08445312 15.31640625 26.93164062 C15.31060547 25.330625 15.31060547 25.330625 15.3046875 23.69726562 C15.30130371 22.715 15.29791992 21.73273438 15.29443359 20.72070312 C15.16633301 19.92921875 15.03823242 19.13773438 14.90625 18.32226562 C11.66342399 16.16038162 10.63169216 16.05720768 6.87109375 15.97851562 C5.41026367 15.93404297 5.41026367 15.93404297 3.91992188 15.88867188 C1.86523619 15.84431676 -0.18945132 15.80004624 -2.24414062 15.75585938 C-3.70303711 15.71138672 -3.70303711 15.71138672 -5.19140625 15.66601562 C-6.52957397 15.63797852 -6.52957397 15.63797852 -7.89477539 15.609375 C-10.09375 15.32226562 -10.09375 15.32226562 -12.09375 13.32226562 C-12.359375 10.79101562 -12.359375 10.79101562 -12.34375 7.82226562 C-12.35148437 6.35273437 -12.35148437 6.35273437 -12.359375 4.85351562 C-11.67007231 -1.71513356 -5.10754622 0.02860642 0 0 Z " fill="#51D9DE" transform="translate(133.09375,69.677734375)" />
  <path d="M0 0 C1.34854676 0.00425997 2.6971009 0.00657978 4.0456543 0.00706482 C6.84962999 0.01318503 9.6527925 0.03567887 12.45654297 0.0715332 C16.05239 0.11715407 19.64751204 0.13158019 23.24362183 0.13527012 C26.01799669 0.13969002 28.79221937 0.15497259 31.56652832 0.17414665 C33.53749687 0.18733273 35.50849649 0.19557345 37.47949219 0.20375061 C38.66833008 0.21973801 39.85716797 0.2357254 41.08203125 0.25219727 C42.65561401 0.26815697 42.65561401 0.26815697 44.26098633 0.28443909 C46.75 0.55859375 46.75 0.55859375 48.75 2.55859375 C49.015625 5.08984375 49.015625 5.08984375 49 8.05859375 C49.00773437 9.528125 49.00773437 9.528125 49.015625 11.02734375 C48.75 13.55859375 48.75 13.55859375 46.75 15.55859375 C44.52432251 15.81015015 44.52432251 15.81015015 41.72119141 15.81396484 C40.67315338 15.82092377 39.62511536 15.82788269 38.5453186 15.83505249 C36.84065933 15.83355698 36.84065933 15.83355698 35.1015625 15.83203125 C32.71093282 15.85232044 30.32030785 15.87317123 27.9296875 15.89453125 C24.14839715 15.91715015 20.36729243 15.93360567 16.5859375 15.93945312 C12.94496823 15.94895461 9.30484343 15.98270804 5.6640625 16.01953125 C4.53167145 16.01448578 3.3992804 16.00944031 2.23257446 16.00424194 C1.17823212 16.01750519 0.12388977 16.03076843 -0.96240234 16.04443359 C-2.35233902 16.04870865 -2.35233902 16.04870865 -3.77035522 16.05307007 C-7.04666994 16.72101037 -8.23394088 17.93148725 -10.25 20.55859375 C-10.85294778 22.51601455 -10.85294778 22.51601455 -10.79589844 24.59277344 C-10.82547638 25.76353424 -10.82547638 25.76353424 -10.85565186 26.95794678 C-10.85749481 28.20659515 -10.85749481 28.20659515 -10.859375 29.48046875 C-10.87591125 30.34045471 -10.89244751 31.20044067 -10.90948486 32.08648682 C-10.95798368 34.82726163 -10.97933956 37.56748155 -11 40.30859375 C-11.02815817 42.16929878 -11.05808539 44.02997794 -11.08984375 45.890625 C-11.16374297 50.4465689 -11.21330595 55.00220442 -11.25 59.55859375 C-14.31533164 61.09125957 -17.51754272 60.66135846 -20.875 60.62109375 C-21.58140625 60.61658203 -22.2878125 60.61207031 -23.015625 60.60742188 C-24.76045275 60.5956325 -26.505237 60.57769699 -28.25 60.55859375 C-29.3740233 58.31054714 -29.39886573 57.03842094 -29.44287109 54.54296875 C-29.45893402 53.71450439 -29.47499695 52.88604004 -29.49154663 52.0324707 C-29.53622004 48.21680591 -29.57712173 44.40131525 -29.60009766 40.58544922 C-29.61658236 38.58174972 -29.6437722 36.57810719 -29.68212891 34.57470703 C-30.1087369 12.16480354 -30.1087369 12.16480354 -24.25 5.55859375 C-16.70065665 0.02342387 -9.05971069 -0.13863622 0 0 Z " fill="#50D9DE" transform="translate(62.25,69.44140625)" />
  <path d="M0 0 C0.99 0.495 0.99 0.495 2 1 C2.05391993 2.79133978 2.09275571 4.58313899 2.125 6.375 C2.14820312 7.37273437 2.17140625 8.37046875 2.1953125 9.3984375 C2 12 2 12 0 14 C-2.22567749 14.2515564 -2.22567749 14.2515564 -5.02880859 14.25537109 C-6.07684662 14.26233002 -7.12488464 14.26928894 -8.2046814 14.27645874 C-9.90934067 14.27496323 -9.90934067 14.27496323 -11.6484375 14.2734375 C-14.03906718 14.29372669 -16.42969215 14.31457748 -18.8203125 14.3359375 C-22.60160285 14.3585564 -26.38270757 14.37501192 -30.1640625 14.38085938 C-33.80503177 14.39036086 -37.44515657 14.42411429 -41.0859375 14.4609375 C-42.21832855 14.45589203 -43.3507196 14.45084656 -44.51742554 14.44564819 C-45.57176788 14.45891144 -46.62611023 14.47217468 -47.71240234 14.48583984 C-49.10233902 14.4901149 -49.10233902 14.4901149 -50.52035522 14.49447632 C-53.79666994 15.16241662 -54.98394088 16.3728935 -57 19 C-57.60294778 20.9574208 -57.60294778 20.9574208 -57.54589844 23.03417969 C-57.57547638 24.20494049 -57.57547638 24.20494049 -57.60565186 25.39935303 C-57.60749481 26.6480014 -57.60749481 26.6480014 -57.609375 27.921875 C-57.62591125 28.78186096 -57.64244751 29.64184692 -57.65948486 30.52789307 C-57.70798368 33.26866788 -57.72933956 36.0088878 -57.75 38.75 C-57.77815817 40.61070503 -57.80808539 42.47138419 -57.83984375 44.33203125 C-57.91374297 48.88797515 -57.96330595 53.44361067 -58 58 C-61.06533164 59.53266582 -64.26754272 59.10276471 -67.625 59.0625 C-68.33140625 59.05798828 -69.0378125 59.05347656 -69.765625 59.04882812 C-71.51045275 59.03703875 -73.255237 59.01910324 -75 59 C-76.1240233 56.75195339 -76.14886573 55.47982719 -76.19287109 52.984375 C-76.20893402 52.15591064 -76.22499695 51.32744629 -76.24154663 50.47387695 C-76.28622004 46.65821216 -76.32712173 42.8427215 -76.35009766 39.02685547 C-76.36658236 37.02315597 -76.3937722 35.01951344 -76.43212891 33.01611328 C-76.86241402 10.41304899 -76.86241402 10.41304899 -71 4 C-68.82958984 2.765625 -68.82958984 2.765625 -67 2 C-68.20864187 5.43998071 -69.38557192 7.49924271 -72 10 C-72.92687325 12.78061975 -73.12193396 14.42051859 -73.11352539 17.2878418 C-73.11344986 18.14850754 -73.11337433 19.00917328 -73.11329651 19.8959198 C-73.10813522 20.82100845 -73.10297394 21.74609711 -73.09765625 22.69921875 C-73.0962413 23.64940384 -73.09482635 24.59958893 -73.09336853 25.5785675 C-73.08776875 28.61491029 -73.07521632 31.65117948 -73.0625 34.6875 C-73.05748497 36.74544164 -73.05292207 38.80338444 -73.04882812 40.86132812 C-73.0377994 45.90758046 -73.02053493 50.95377775 -73 56 C-68.81537205 58.09231398 -63.67855628 57 -59 57 C-59 43.14 -59 29.28 -59 15 C-50 11.625 -50 11.625 -45.41015625 11.65942383 C-43.8794751 11.65976372 -43.8794751 11.65976372 -42.31787109 11.66011047 C-40.7064624 11.68333626 -40.7064624 11.68333626 -39.0625 11.70703125 C-37.94182129 11.71127609 -36.82114258 11.71552094 -35.66650391 11.71989441 C-32.11075126 11.73659689 -28.55557941 11.77423432 -25 11.8125 C-22.57943531 11.82755769 -20.15886167 11.8412442 -17.73828125 11.85351562 C-11.82529935 11.88647294 -5.91274792 11.93819759 0 12 C0 8.04 0 4.08 0 0 Z " fill="#62CBCD" transform="translate(109,71)" />
  <path d="M0 0 C1.1471196 0.00707474 2.2942392 0.01414948 3.47612 0.0214386 C7.13448713 0.04939312 10.79131538 0.11213839 14.44921875 0.17578125 C16.9316185 0.20086253 19.41404227 0.22367599 21.89648438 0.24414062 C27.97708621 0.29922347 34.05679253 0.38286227 40.13671875 0.48828125 C40.13671875 0.81828125 40.13671875 1.14828125 40.13671875 1.48828125 C38.25351929 1.52586548 38.25351929 1.52586548 36.33227539 1.56420898 C31.64126679 1.65891 26.95038483 1.75897355 22.25952148 1.8605957 C20.23546324 1.90370887 18.21137412 1.94539882 16.18725586 1.9855957 C13.26536792 2.04387517 10.34363199 2.1073984 7.421875 2.171875 C6.52775406 2.18858749 5.63363312 2.20529999 4.7124176 2.22251892 C-0.8690848 2.35193379 -6.32232766 2.79842394 -11.86328125 3.48828125 C-12.19328125 4.80828125 -12.52328125 6.12828125 -12.86328125 7.48828125 C-13.52328125 7.48828125 -14.18328125 7.48828125 -14.86328125 7.48828125 C-14.85804443 8.29458984 -14.85280762 9.10089844 -14.84741211 9.93164062 C-14.82650763 13.61717944 -14.81357839 17.30270573 -14.80078125 20.98828125 C-14.79240234 22.25671875 -14.78402344 23.52515625 -14.77539062 24.83203125 C-14.75893988 31.14911624 -14.86237111 37.24638497 -15.86328125 43.48828125 C-16.19328125 43.48828125 -16.52328125 43.48828125 -16.86328125 43.48828125 C-16.98711189 38.16813609 -17.07772801 32.84883411 -17.13793945 27.52758789 C-17.16304515 25.71851993 -17.1971372 23.90955303 -17.24047852 22.10083008 C-17.30130704 19.49665374 -17.32952934 16.89382094 -17.3515625 14.2890625 C-17.37736893 13.48366531 -17.40317535 12.67826813 -17.42976379 11.84846497 C-17.43170178 7.94632259 -17.09998658 5.8877861 -15.07421875 2.46875 C-10.16878502 -0.55686424 -5.65050514 -0.13117614 0 0 Z " fill="#022F30" transform="translate(67.86328125,84.51171875)" />
  <path d="M0 0 C1.20446777 0.01047363 2.40893555 0.02094727 3.64990234 0.03173828 C5.60283203 0.04140625 5.60283203 0.04140625 7.59521484 0.05126953 C8.9754258 0.06798149 10.35563413 0.08491139 11.73583984 0.10205078 C13.12385436 0.11208072 14.51187574 0.12120655 15.89990234 0.12939453 C19.3037201 0.15303215 22.70719491 0.18598211 26.11083984 0.22705078 C26.11083984 0.55705078 26.11083984 0.88705078 26.11083984 1.22705078 C16.87083984 1.55705078 7.63083984 1.88705078 -1.88916016 2.22705078 C-2.21916016 4.53705078 -2.54916016 6.84705078 -2.88916016 9.22705078 C-2.22916016 9.55705078 -1.56916016 9.88705078 -0.88916016 10.22705078 C-1.21916016 11.54705078 -1.54916016 12.86705078 -1.88916016 14.22705078 C-0.81432373 14.20348511 -0.81432373 14.20348511 0.28222656 14.17944336 C3.51668461 14.11723215 6.75101704 14.07810429 9.98583984 14.03955078 C11.11376953 14.01441406 12.24169922 13.98927734 13.40380859 13.96337891 C14.48017578 13.95371094 15.55654297 13.94404297 16.66552734 13.93408203 C18.15802002 13.91051636 18.15802002 13.91051636 19.68066406 13.88647461 C20.48262207 13.99886475 21.28458008 14.11125488 22.11083984 14.22705078 C25.35834863 19.09831396 24.43869419 24.50295105 24.42333984 30.22705078 C24.43945312 31.42845703 24.45556641 32.62986328 24.47216797 33.86767578 C24.4728125 35.01751953 24.47345703 36.16736328 24.47412109 37.35205078 C24.47710205 38.40650391 24.48008301 39.46095703 24.4831543 40.54736328 C24.067545 43.5386601 23.46645901 44.42072572 21.11083984 46.22705078 C20.45083984 45.56705078 19.79083984 44.90705078 19.11083984 44.22705078 C20.10083984 43.56705078 21.09083984 42.90705078 22.11083984 42.22705078 C22.57688958 39.74382819 22.57688958 39.74382819 22.50927734 36.85205078 C22.51314453 35.78470703 22.51701172 34.71736328 22.52099609 33.61767578 C22.50939453 32.49876953 22.49779297 31.37986328 22.48583984 30.22705078 C22.49744141 29.10814453 22.50904297 27.98923828 22.52099609 26.83642578 C22.51519531 25.23541016 22.51519531 25.23541016 22.50927734 23.60205078 C22.50589355 22.61978516 22.50250977 21.63751953 22.49902344 20.62548828 C22.30687256 19.43826172 22.30687256 19.43826172 22.11083984 18.22705078 C18.86801384 16.06516678 17.836282 15.96199284 14.07568359 15.88330078 C13.10179687 15.85365234 12.12791016 15.82400391 11.12451172 15.79345703 C9.06982604 15.74910191 7.01513853 15.7048314 4.96044922 15.66064453 C3.50155273 15.61617187 3.50155273 15.61617187 2.01318359 15.57080078 C0.67501587 15.54276367 0.67501587 15.54276367 -0.69018555 15.51416016 C-2.88916016 15.22705078 -2.88916016 15.22705078 -4.88916016 13.22705078 C-5.15478516 10.69580078 -5.15478516 10.69580078 -5.13916016 7.72705078 C-5.14431641 6.74736328 -5.14947266 5.76767578 -5.15478516 4.75830078 C-4.75829598 0.97999213 -3.73725544 0.29370015 0 0 Z " fill="#5CC0C1" transform="translate(125.88916015625,69.77294921875)" />
  <path d="M0 0 C-1.11967163 0.00546844 -1.11967163 0.00546844 -2.26196289 0.01104736 C-9.32349076 0.04903711 -16.38455707 0.10601322 -23.44573975 0.18390274 C-27.0753348 0.22328102 -30.70469077 0.25551619 -34.33447266 0.27099609 C-37.84259227 0.28622717 -41.35005417 0.32078433 -44.85787964 0.36830902 C-46.83622203 0.39019599 -48.81475033 0.39246818 -50.79321289 0.39434814 C-58.0436346 0.51147181 -62.78184164 1.23726502 -69 5 C-69.66 5 -70.32 5 -71 5 C-71.433125 6.0828125 -71.433125 6.0828125 -71.875 7.1875 C-72.91666667 9.79166667 -73.95833333 12.39583333 -75 15 C-76.0326802 12.21176345 -76.04509293 11.1322726 -75.0625 8.25 C-74.711875 7.5075 -74.36125 6.765 -74 6 C-73.34 6 -72.68 6 -72 6 C-72 5.34 -72 4.68 -72 4 C-71.34 4 -70.68 4 -70 4 C-70 3.34 -70 2.68 -70 2 C-65.74734932 -0.39639627 -62.63845873 -1.38545453 -57.7668457 -1.46411133 C-56.55571609 -1.49036087 -55.34458649 -1.51661041 -54.09675598 -1.5436554 C-52.80283432 -1.55631943 -51.50891266 -1.56898346 -50.17578125 -1.58203125 C-48.82389235 -1.60398291 -47.47201917 -1.6269224 -46.12016296 -1.65080261 C-43.29686727 -1.69751579 -40.47367634 -1.73422799 -37.65014648 -1.76342773 C-34.03161261 -1.80138438 -30.4138557 -1.86143749 -26.79575825 -1.92854786 C-24.00863145 -1.97832922 -21.22143375 -2.01797429 -18.43410301 -2.05438805 C-16.45146266 -2.08167776 -14.46892808 -2.1163293 -12.48640442 -2.15107727 C-11.28473129 -2.16156601 -10.08305817 -2.17205475 -8.8449707 -2.18286133 C-7.78607132 -2.19601883 -6.72717194 -2.20917633 -5.63618469 -2.22273254 C-3 -2 -3 -2 0 0 Z " fill="#021414" transform="translate(109,70)" />
  <path d="M0 0 C3.98200011 3.77779498 5.90071708 5.71849509 6.14526367 11.33813477 C6.15860583 12.70584779 6.16579457 14.07362988 6.16796875 15.44140625 C6.17129715 16.16488754 6.17462555 16.88836884 6.17805481 17.6337738 C6.18311173 19.1610348 6.18546352 20.68830681 6.18530273 22.21557617 C6.18749514 24.55731214 6.20567948 26.89858137 6.22460938 29.24023438 C6.22754232 30.72395672 6.22952778 32.2076813 6.23046875 33.69140625 C6.23765427 34.39350723 6.24483978 35.09560822 6.25224304 35.81898499 C6.22883364 40.77116636 6.22883364 40.77116636 4 43 C3.98541748 42.01717041 3.97083496 41.03434082 3.95581055 40.02172852 C3.8973541 36.33680837 3.82012942 32.65246944 3.73754883 28.96801758 C3.70452021 27.38054922 3.67642131 25.79296965 3.65356445 24.20532227 C3.52790692 15.70606079 3.40187345 7.94378491 0 0 Z " fill="#61C9CA" transform="translate(161,75)" />
  <path d="M0 0 C2.97 0.495 2.97 0.495 6 1 C6.33 1.99 6.66 2.98 7 4 C10.12832889 5.0427763 12.29189087 5.12076845 15.57299805 5.11352539 C16.71395432 5.11344986 17.85491058 5.11337433 19.03044128 5.11329651 C20.26176285 5.10813522 21.49308441 5.10297394 22.76171875 5.09765625 C24.02264847 5.0962413 25.28357819 5.09482635 26.5827179 5.09336853 C29.93151709 5.08871575 33.28024811 5.07973342 36.62902832 5.06866455 C40.04760143 5.05842687 43.46618159 5.05386586 46.88476562 5.04882812 C53.58986261 5.03779099 60.29492737 5.02104686 67 5 C63.796798 6.88355115 61.41204609 7.26010656 57.71582031 7.29052734 C56.13332489 7.3096669 56.13332489 7.3096669 54.51885986 7.32919312 C52.81569611 7.33253159 52.81569611 7.33253159 51.078125 7.3359375 C49.90417175 7.3425943 48.73021851 7.3492511 47.52069092 7.35610962 C45.0359453 7.36623536 42.55117248 7.37092666 40.06640625 7.37060547 C36.27818503 7.37496755 32.49113925 7.41125973 28.703125 7.44921875 C26.28646231 7.4550892 23.86979409 7.45905706 21.453125 7.4609375 C19.76210663 7.48249405 19.76210663 7.48249405 18.03692627 7.50448608 C11.26151907 7.4654353 6.7151201 6.75654861 1 3 C0.67 2.01 0.34 1.02 0 0 Z " fill="#57B7B9" transform="translate(89,123)" />
  <path d="M0 0 C3.4165052 -0.08724706 6.83272313 -0.14047325 10.25 -0.1875 C11.70212891 -0.22520508 11.70212891 -0.22520508 13.18359375 -0.26367188 C14.58544922 -0.27817383 14.58544922 -0.27817383 16.015625 -0.29296875 C16.87446289 -0.3086792 17.73330078 -0.32438965 18.61816406 -0.34057617 C21.62023834 0.08868722 22.92526274 0.78568521 25 3 C25.45410156 5.54370117 25.45410156 5.54370117 25.390625 8.54296875 C25.37128906 10.15268555 25.37128906 10.15268555 25.3515625 11.79492188 C25.31804687 12.91447266 25.28453125 14.03402344 25.25 15.1875 C25.23195312 16.31865234 25.21390625 17.44980469 25.1953125 18.61523438 C25.14812652 21.41100376 25.08230595 24.20507972 25 27 C24.34 27.33 23.68 27.66 23 28 C22.98018066 27.28344238 22.96036133 26.56688477 22.93994141 25.82861328 C22.84490481 22.5936937 22.73513981 19.35943906 22.625 16.125 C22.5940625 14.99707031 22.563125 13.86914062 22.53125 12.70703125 C22.49257812 11.63066406 22.45390625 10.55429688 22.4140625 9.4453125 C22.36693115 7.95281982 22.36693115 7.95281982 22.31884766 6.43017578 C22.22752917 3.82145483 22.22752917 3.82145483 20 2 C17.87139338 1.63047951 17.87139338 1.63047951 15.4296875 1.5859375 C14.53378906 1.54726562 13.63789063 1.50859375 12.71484375 1.46875 C11.77769531 1.4378125 10.84054688 1.406875 9.875 1.375 C8.45767578 1.31699219 8.45767578 1.31699219 7.01171875 1.2578125 C4.67467625 1.16338654 2.33764499 1.07781606 0 1 C0 0.67 0 0.34 0 0 Z " fill="#022829" transform="translate(124,85)" />
  <path d="M0 0 C2.97 0.495 2.97 0.495 6 1 C6.33 1.99 6.66 2.98 7 4 C7.99 4.66 8.98 5.32 10 6 C5.8333396 5.52651586 3.07115285 4.95303159 0 2 C0 1.34 0 0.68 0 0 Z " fill="#58BFC1" transform="translate(89,123)" />
  <path d="M0 0 C0.33 0.66 0.66 1.32 1 2 C-0.26953125 3.46484375 -1.5390625 4.9296875 -2.80859375 6.39453125 C-4.20871231 8.10712971 -4.20871231 8.10712971 -5 11 C-5.66 11 -6.32 11 -7 11 C-5.72278474 6.00724943 -3.82669043 3.42388092 0 0 Z " fill="#5EC8C8" transform="translate(41,73)" />
  <path d="M0 0 C0.66 0.33 1.32 0.66 2 1 C1.0479279 2.00596297 0.08812654 3.00461563 -0.875 4 C-1.40867188 4.556875 -1.94234375 5.11375 -2.4921875 5.6875 C-4 7 -4 7 -6 7 C-5.8125 5.1875 -5.8125 5.1875 -5 3 C-2.5625 1.1875 -2.5625 1.1875 0 0 Z " fill="#5CC7C7" transform="translate(163,121)" />
  <path d="M0 0 C0.66 0.33 1.32 0.66 2 1 C-2.75 5.875 -2.75 5.875 -5 7 C-5 5.35 -5 3.7 -5 2 C-2.625 0.9375 -2.625 0.9375 0 0 Z " fill="#5CCDCC" transform="translate(55,84)" />
  <path d="M0 0 C6.52307692 0.61538462 6.52307692 0.61538462 8.9375 2.5625 C9.288125 3.036875 9.63875 3.51125 10 4 C5.78087253 3.5205537 3.20336822 2.83374881 0 0 Z " fill="#61CBCB" transform="translate(151,71)" />
</svg>