<svg width="141" height="50" viewBox="0 0 141 50" fill="none" xmlns="http://www.w3.org/2000/svg">
<path d="M64.4359 13.3801C65.127 15.9287 63.5967 18.5483 61.0174 19.2312C58.4381 19.9141 55.7872 18.4017 55.0961 15.8532C54.405 13.3047 55.9357 10.685 58.515 10.0021C61.0939 9.31919 63.7452 10.8316 64.4359 13.3801Z" fill="black"/>
<path d="M51.7665 39.1836C53.1894 29.5257 37.7161 10.0292 14.354 19.7534C15.8602 29.5257 27.0783 47.493 51.7665 39.1836Z" fill="black"/>
<path d="M71.9506 30.2903C56.284 25.1294 22.8231 24.7472 0 48.493C15.4733 51.6981 47.9671 51.507 71.9506 30.2903Z" fill="black"/>
<path d="M120.296 6.19614C108.87 0.491552 88.5895 -1.94103 69.4361 2.2308C71.7571 8.50021 73.8847 18.6307 71.9505 30.2932C103.671 20.3538 128.235 26.4703 141 30.6755C140.897 29.8516 137.916 13.4138 120.296 6.19614Z" fill="#FF5816"/>
</svg>
