<svg width="41" height="59.99999999999999" xmlns="http://www.w3.org/2000/svg" data-name="Layer 1">
 <defs>
  <linearGradient y2="0.5" x2="1" y1="0.5" x1="0" id="linear-gradient">
   <stop stop-color="#44b4fc" offset="0"/>
   <stop stop-color="#b4effd" offset="1"/>
  </linearGradient>
  <linearGradient y2="0.50109" x2="1" y1="0.50109" x1="0" id="linear-gradient-2">
   <stop stop-color="#36f" offset="0"/>
   <stop stop-color="#44b4fc" offset="1"/>
  </linearGradient>
  <linearGradient y2="0.49973" x2="1" y1="0.49973" x1="0" id="linear-gradient-3">
   <stop stop-color="#1a39b6" offset="0"/>
   <stop stop-color="#36f" offset="1"/>
  </linearGradient>
 </defs>
 <title>ExpensyaLogo</title>
 <g>
  <title>Layer 1</title>
  <path id="svg_1" fill="url(#linear-gradient)" d="m33.43,27.78l3.28,0a3.37,3.37 0 0 0 3.38,-3.37l0,-13.29l-23.31,0a3.33,3.33 0 0 0 -3.33,3.33l0,0a3.33,3.33 0 0 0 3.33,3.33l15,0a1.66,1.66 0 0 1 1.66,1.67l-0.01,8.33z" class="cls-2"/>
  <path id="svg_2" fill="url(#linear-gradient-2)" d="m26.77,37.79l3.28,0a3.38,3.38 0 0 0 3.38,-3.38l0,-15l0,0a1.66,1.66 0 0 1 -1.66,1.67l-21.64,0a3.33,3.33 0 1 0 0,6.66l15,0a1.66,1.66 0 0 1 1.66,1.67l0,0a1.66,1.66 0 0 1 -1.66,1.67l-18.34,0l0,6.67l19.98,0.04z" class="cls-3"/>
  <path id="svg_3" fill="url(#linear-gradient-3)" d="m26.77,29.45l0,15a3.35,3.35 0 0 1 -3.35,3.35l-23.29,0l0,-13.34a3.33,3.33 0 0 1 3.34,-3.34l21.64,0a1.66,1.66 0 0 0 1.66,-1.67z" class="cls-4"/>
 </g>
</svg>